<svg id="Layer_1" data-name="Layer 1" xmlns="http://www.w3.org/2000/svg" viewBox="0 0 100 100"><defs><style>.cls-1{fill:#f67b2d;}.cls-2{fill:#fff;fill-rule:evenodd;}</style></defs><circle class="cls-1" cx="50" cy="50" r="50"/><path class="cls-2" d="M56.47,28.43c1.69-.06,3.37,0,5.06,0h.69V19.65c-.9-.09-1.84-.21-2.78-.26-1.72-.08-3.45-.16-5.18-.12a12.62,12.62,0,0,0-7.32,2.26,11,11,0,0,0-4.4,7.31,26.12,26.12,0,0,0-.3,3.76c-.05,2,0,3.93,0,5.89v.74H33.85V49h8.33V73.6H52.36V49.05h8.31c.42-3.25.84-6.47,1.27-9.83H52.3s0-4.84.08-6.95C52.46,29.39,54.17,28.51,56.47,28.43Z"/></svg>