<svg id="Layer_3" data-name="Layer 3" xmlns="http://www.w3.org/2000/svg" viewBox="0 0 100 100"><defs><style>.cls-1{fill:#fc591c;}.cls-2{fill:#fff;fill-rule:evenodd;}</style></defs><circle class="cls-1" cx="50" cy="50" r="50"/><path class="cls-2" d="M67.44,25.24h-34A7.74,7.74,0,0,0,25.66,33V67a7.74,7.74,0,0,0,7.75,7.74h34A7.74,7.74,0,0,0,75.19,67V33A7.74,7.74,0,0,0,67.44,25.24ZM61,32.07a1.38,1.38,0,0,1,1.38-1.38h6a1.38,1.38,0,0,1,1.38,1.38v6a1.38,1.38,0,0,1-1.38,1.38h-6A1.38,1.38,0,0,1,61,38.05ZM41.3,46.43a9.79,9.79,0,0,1,18.25,0A9.61,9.61,0,0,1,60.23,50a9.81,9.81,0,1,1-19.61,0A9.61,9.61,0,0,1,41.3,46.43ZM69.94,67a2.5,2.5,0,0,1-2.5,2.5h-34a2.5,2.5,0,0,1-2.5-2.5V46.43H35.8a15.06,15.06,0,1,0,29.25,0h4.89Z"/></svg>