<svg id="Layer_1" data-name="Layer 1" xmlns="http://www.w3.org/2000/svg" viewBox="0 0 186.34 27.55"><path d="M0,19.27H3.06V.39H0V0H8.89V.39H5.82V19.27h4.92a4.9,4.9,0,0,0,3.81-1.52,9.23,9.23,0,0,0,2-4.14h.31v6.05H0Z"/><path d="M20.93,19.27h2.12V8.2H20.93V7.81h4.5V19.27h2.12v.39H20.93ZM22.72,1.38a1.38,1.38,0,0,1,.43-1,1.38,1.38,0,0,1,1-.43,1.4,1.4,0,0,1,1,.43,1.42,1.42,0,0,1,.43,1,1.44,1.44,0,0,1-.43,1,1.43,1.43,0,0,1-1,.42,1.41,1.41,0,0,1-1-.42A1.4,1.4,0,0,1,22.72,1.38Z"/><path d="M31.17,27h2.12V8.2H31.17V7.81h4.44v2.32h.06A4.24,4.24,0,0,1,37,8.21a3.89,3.89,0,0,1,2.47-.76A5,5,0,0,1,41.74,8a6.56,6.56,0,0,1,1.85,1.36,6.41,6.41,0,0,1,1.27,2,6.23,6.23,0,0,1,.47,2.38,6.17,6.17,0,0,1-.48,2.41,6.9,6.9,0,0,1-1.32,2,6.44,6.44,0,0,1-1.91,1.41,5.27,5.27,0,0,1-2.31.52,3.5,3.5,0,0,1-1.59-.32A3.91,3.91,0,0,1,36.66,19,3.28,3.28,0,0,1,36,18.1a5.75,5.75,0,0,1-.31-.74h0V27h2.12v.39H31.17Zm11.4-13.67a17.16,17.16,0,0,0-.14-2.27A5.72,5.72,0,0,0,42,9.33a2.49,2.49,0,0,0-1-1.1,2.93,2.93,0,0,0-1.59-.39,3.48,3.48,0,0,0-1.68.36,3.32,3.32,0,0,0-1.08.91,3.45,3.45,0,0,0-.48.83A4.93,4.93,0,0,0,35.86,11a12.34,12.34,0,0,0-.15,1.39c0,.53,0,1.15,0,1.86a13.51,13.51,0,0,0,.13,1.88,6,6,0,0,0,.53,1.76,3.38,3.38,0,0,0,1.09,1.28,3.77,3.77,0,0,0,3.66.05,2.61,2.61,0,0,0,1-1.27,6.76,6.76,0,0,0,.42-2C42.54,15.16,42.57,14.29,42.57,13.33Z"/><path d="M49.61,27h2.12V8.2H49.61V7.81h4.44v2.32h.06a4.24,4.24,0,0,1,1.36-1.92,3.89,3.89,0,0,1,2.47-.76A5,5,0,0,1,60.18,8,6.56,6.56,0,0,1,62,9.32a6.41,6.41,0,0,1,1.27,2,6.23,6.23,0,0,1,.47,2.38,6.17,6.17,0,0,1-.48,2.41,6.9,6.9,0,0,1-1.32,2,6.44,6.44,0,0,1-1.91,1.41,5.27,5.27,0,0,1-2.31.52,3.52,3.52,0,0,1-1.59-.32A3.91,3.91,0,0,1,55.1,19a3.28,3.28,0,0,1-.63-.88,5.75,5.75,0,0,1-.31-.74h0V27h2.12v.39H49.61ZM61,13.33a17.16,17.16,0,0,0-.14-2.27,5.72,5.72,0,0,0-.48-1.73,2.49,2.49,0,0,0-1-1.1,2.93,2.93,0,0,0-1.59-.39,3.48,3.48,0,0,0-1.68.36,3.32,3.32,0,0,0-1.08.91,3.45,3.45,0,0,0-.48.83A4.93,4.93,0,0,0,54.3,11a12.34,12.34,0,0,0-.15,1.39c0,.53,0,1.15,0,1.86a12.17,12.17,0,0,0,.14,1.88,5.73,5.73,0,0,0,.52,1.76,3.38,3.38,0,0,0,1.09,1.28,3.77,3.77,0,0,0,3.66.05,2.61,2.61,0,0,0,1-1.27,6.76,6.76,0,0,0,.42-2C61,15.16,61,14.29,61,13.33Z"/><path d="M71.31,12.81c0,.18,0,.37,0,.57s0,.43,0,.73a15.81,15.81,0,0,0,.11,1.9,5.68,5.68,0,0,0,.48,1.8A3.37,3.37,0,0,0,73,19.13a3.23,3.23,0,0,0,1.94.53,4.8,4.8,0,0,0,2-.36,3.75,3.75,0,0,0,1.25-.87,3.9,3.9,0,0,0,.67-1c.15-.35.26-.63.33-.85l.42.08a8.79,8.79,0,0,1-.32.87,4.1,4.1,0,0,1-.75,1.13,4.37,4.37,0,0,1-1.38,1,5,5,0,0,1-2.25.43,7.26,7.26,0,0,1-2.55-.44,5.82,5.82,0,0,1-2-1.27,5.69,5.69,0,0,1-1.32-2,6.6,6.6,0,0,1-.47-2.56A6.07,6.07,0,0,1,69,11.44,6.67,6.67,0,0,1,72.3,8a5.54,5.54,0,0,1,2.43-.54,5.65,5.65,0,0,1,1.65.28,4.77,4.77,0,0,1,1.65.9,5,5,0,0,1,1.27,1.64,5.66,5.66,0,0,1,.51,2.54ZM77,12.42a4.53,4.53,0,0,0,.06-.71V11a5.51,5.51,0,0,0-.18-1.54,2.53,2.53,0,0,0-.5-1A1.74,1.74,0,0,0,75.6,8a3.14,3.14,0,0,0-1-.15,2.92,2.92,0,0,0-1.55.37,2.74,2.74,0,0,0-1,1,5.15,5.15,0,0,0-.54,1.46,12.15,12.15,0,0,0-.24,1.74Z"/><path d="M105.15,19.27h3.06V.39h-1.6a9.77,9.77,0,0,0-1.24.09A3.71,3.71,0,0,0,104,1a4.93,4.93,0,0,0-1.36,1.4,9,9,0,0,0-1.11,2.63h-.31V0H118V5.05h-.31a9,9,0,0,0-1.11-2.63A4.93,4.93,0,0,0,115.21,1a3.71,3.71,0,0,0-1.39-.54,9.77,9.77,0,0,0-1.24-.09H111V19.27H114v.39h-8.89Z"/><path d="M130.85,19.35a3.31,3.31,0,0,1-.85.48,3.17,3.17,0,0,1-1.22.21,2.77,2.77,0,0,1-1.92-.56,3.09,3.09,0,0,1-.81-1.59H126c-.07.16-.17.37-.3.62a2.56,2.56,0,0,1-.59.72,3.47,3.47,0,0,1-1.07.58,5.28,5.28,0,0,1-1.68.23,5.47,5.47,0,0,1-1.85-.26,3,3,0,0,1-1.08-.65,1.86,1.86,0,0,1-.51-.87,3.72,3.72,0,0,1-.12-.9,2.78,2.78,0,0,1,.38-1.54,2.91,2.91,0,0,1,1-.93,7.11,7.11,0,0,1,1.38-.56l1.53-.47c.61-.2,1.11-.38,1.51-.53a2.59,2.59,0,0,0,.92-.53A1.68,1.68,0,0,0,126,12a5.6,5.6,0,0,0,.12-1.31A7.06,7.06,0,0,0,126,9.5a2.58,2.58,0,0,0-.3-.9,1.42,1.42,0,0,0-.64-.57,2.59,2.59,0,0,0-1.1-.19,3.22,3.22,0,0,0-1.51.32,1.08,1.08,0,0,0-.59,1,5.74,5.74,0,0,0,.08.93,3.86,3.86,0,0,1,.09.67.87.87,0,0,1-.28.65,1.09,1.09,0,0,1-.8.27c-.61,0-1-.12-1.13-.34a1.47,1.47,0,0,1-.22-.85,2.6,2.6,0,0,1,.27-1.16,2.93,2.93,0,0,1,.82-1,4.07,4.07,0,0,1,1.35-.68,6.54,6.54,0,0,1,1.86-.25,6.21,6.21,0,0,1,2.13.32,3.65,3.65,0,0,1,1.38.86,3,3,0,0,1,.74,1.21,4.49,4.49,0,0,1,.22,1.42v6.88a1.68,1.68,0,0,0,.25,1.07.91.91,0,0,0,.72.28,2.21,2.21,0,0,0,.64-.11,2.12,2.12,0,0,0,.63-.33ZM126,12.89h0c0,.24-.35.48-.92.72l-2.07.83a3,3,0,0,0-1.35,1,2.69,2.69,0,0,0-.47,1.61,5.19,5.19,0,0,0,.08.86,2.24,2.24,0,0,0,.31.78,1.71,1.71,0,0,0,.62.57,2.1,2.1,0,0,0,1,.22,2.45,2.45,0,0,0,2.34-1.35,4.1,4.1,0,0,0,.38-1.26,8,8,0,0,0,.1-1.23Z"/><path d="M132.45,7.81h6.77V8.2H136.9l3.56,8.67,3.72-8.67h-2.29V7.81h4.23V8.2h-1.49l-4.56,10.66c-.35.79-.68,1.58-1,2.38s-.63,1.61-.94,2.42-.52,1.24-.77,1.74a5.66,5.66,0,0,1-.82,1.21,2.89,2.89,0,0,1-.92.71,3.24,3.24,0,0,1-2.45,0,2.42,2.42,0,0,1-.76-.58,1.62,1.62,0,0,1-.35-.69,2.56,2.56,0,0,1-.09-.6,1.31,1.31,0,0,1,.39-1,1.37,1.37,0,0,1,.94-.35,2.08,2.08,0,0,1,.41.05,1.06,1.06,0,0,1,.42.15,1,1,0,0,1,.33.3.82.82,0,0,1,.14.47,1.25,1.25,0,0,1-.24.73,1.31,1.31,0,0,0-.23.76c0,.24.06.4.19.47a1.09,1.09,0,0,0,.52.11,1.64,1.64,0,0,0,.82-.21,2.36,2.36,0,0,0,.73-.67,6.67,6.67,0,0,0,.72-1.23c.24-.51.5-1.13.8-1.86l1.21-3.1L134.36,8.2h-1.91Z"/><path d="M148.71,19.27h2.13V.14h-2.13V-.25h4.5V19.27h2.13v.39h-6.63Z"/><path d="M159.42,13.75a5.37,5.37,0,0,1,.6-2.51,7,7,0,0,1,1.51-2,7.17,7.17,0,0,1,2.08-1.31,5.6,5.6,0,0,1,4.49,0,7.17,7.17,0,0,1,2.08,1.31,7,7,0,0,1,1.51,2,5.37,5.37,0,0,1,.6,2.51,5.66,5.66,0,0,1-.55,2.44,6.94,6.94,0,0,1-1.45,2,7.16,7.16,0,0,1-2.06,1.36,6,6,0,0,1-4.75,0,7.16,7.16,0,0,1-2.06-1.36,6.73,6.73,0,0,1-1.44-2A5.53,5.53,0,0,1,159.42,13.75Zm2.76,0a12.46,12.46,0,0,0,.31,3.12,4.84,4.84,0,0,0,.8,1.78,2.33,2.33,0,0,0,1.16.81,5,5,0,0,0,2.81,0,2.33,2.33,0,0,0,1.16-.81,4.84,4.84,0,0,0,.8-1.78,12.46,12.46,0,0,0,.31-3.12,15.33,15.33,0,0,0-.22-2.78,5.37,5.37,0,0,0-.68-1.82,2.65,2.65,0,0,0-1.15-1,4.55,4.55,0,0,0-3.25,0,2.65,2.65,0,0,0-1.15,1A5.37,5.37,0,0,0,162.4,11,15.33,15.33,0,0,0,162.18,13.75Z"/><path d="M176.35,19.27h2.12V8.2h-2.12V7.81h4.44V10.6h.06a5.58,5.58,0,0,1,.35-.94,4.54,4.54,0,0,1,.69-1A4,4,0,0,1,183,7.84a3.14,3.14,0,0,1,1.5-.33,2.75,2.75,0,0,1,1.11.21,2.27,2.27,0,0,1,.77.52,2,2,0,0,1,.44.73,2.68,2.68,0,0,1,.14.83A1.41,1.41,0,0,1,186.5,11a1.51,1.51,0,0,1-1,.31c-.81,0-1.22-.26-1.22-.77a1.09,1.09,0,0,1,.06-.4l.12-.31a2.2,2.2,0,0,0,.13-.34,2.61,2.61,0,0,0,.05-.56c0-.58-.32-.88-1-.88a1.7,1.7,0,0,0-.94.33,3.61,3.61,0,0,0-.93,1,6,6,0,0,0-.71,1.53,6.49,6.49,0,0,0-.29,2.06v6.32h2.4v.39h-6.9Z"/><rect x="87.82" y="9.78" width="8.33" height="8.33"/></svg>