<svg id="Layer_2" data-name="Layer 2" xmlns="http://www.w3.org/2000/svg" viewBox="0 0 100 100"><defs><style>.cls-1{fill:#f86c25;}.cls-2{fill:#fff;fill-rule:evenodd;}</style></defs><circle class="cls-1" cx="50" cy="50" r="50"/><path class="cls-2" d="M39.07,62.77a11.43,11.43,0,0,1-10.61-7.92,11.36,11.36,0,0,0,4.89-.15l.16-.07a11.41,11.41,0,0,1-7.41-5.24,11.05,11.05,0,0,1-1.67-6.06,11.36,11.36,0,0,0,5.08,1.38,11.46,11.46,0,0,1-4.7-6.92A11.32,11.32,0,0,1,26,29.52,32.62,32.62,0,0,0,49.57,41.44c-.07-.45-.14-.84-.18-1.24a11.41,11.41,0,0,1,19.39-9.44.58.58,0,0,0,.61.18A23.12,23.12,0,0,0,76,28.39l.15-.08h.07a11.63,11.63,0,0,1-4.88,6.21,21.81,21.81,0,0,0,6.35-1.71l0,.05c-.44.58-.86,1.16-1.32,1.71a22.44,22.44,0,0,1-4.14,3.95.37.37,0,0,0-.19.35,31.77,31.77,0,0,1-.21,5.07A33.6,33.6,0,0,1,69,54.09a33.12,33.12,0,0,1-6.17,9,30.51,30.51,0,0,1-15.68,8.73,33.19,33.19,0,0,1-6.36.76,32.23,32.23,0,0,1-18.26-4.9l-.27-.17a23.1,23.1,0,0,0,11.42-1.58A22.45,22.45,0,0,0,39.07,62.77Z"/></svg>