<svg id="Earned_First" data-name="Earned First" xmlns="http://www.w3.org/2000/svg" viewBox="0 0 1920 1080"><defs><style>.cls-1{fill:none;stroke:#fff;stroke-miterlimit:10;stroke-width:2.33px;}</style></defs><path class="cls-1" d="M213.69,444.37v19.8H141V373.59h71v19.79H166.33v15.27h40.24v19.16H166.33v16.56Z"/><path class="cls-1" d="M288.61,446.57h-38.3l-7.12,17.6H217.05l40-90.58h25.23l40.12,90.58H295.73Zm-7.5-18.89-11.65-29-11.65,29Z"/><path class="cls-1" d="M369.23,440.1h-14v24.07H329.63V373.59H371q12.3,0,21.35,4.07a32.94,32.94,0,0,1,14.3,46.59,31.09,31.09,0,0,1-13.13,11.45l19.54,28.47H385.67Zm12.16-42.83q-4-3.5-11.9-3.5H355.25V420.3h14.24q7.89,0,11.9-3.43t4-9.77Q385.41,400.77,381.39,397.27Z"/><path class="cls-1" d="M511.57,373.59v90.58H490.48l-40-48.27v48.27H425.39V373.59h21.09l40,48.26V373.59Z"/><path class="cls-1" d="M602.42,444.37v19.8H529.69V373.59h71v19.79H555.05v15.27H595.3v19.16H555.05v16.56Z"/><path class="cls-1" d="M616.65,373.59h42.83q14.88,0,26.4,5.56a41.9,41.9,0,0,1,17.86,15.79q6.33,10.21,6.34,23.94t-6.34,23.94a41.88,41.88,0,0,1-17.86,15.78q-11.52,5.56-26.4,5.57H616.65Zm41.8,70.13q11.64,0,18.7-6.6t7.05-18.24q0-11.65-7.05-18.25t-18.7-6.6H642.27v49.69Z"/><path class="cls-1" d="M722.24,408.78H760v18.9H722.24Z"/><path class="cls-1" d="M802.21,393.38v19.93h40v19.8h-40v31.06H776.59V373.59h71v19.79Z"/><path class="cls-1" d="M859.67,373.59h25.62v90.58H859.67Z"/><path class="cls-1" d="M943.13,440.1h-14v24.07H903.53V373.59h41.41q12.3,0,21.35,4.07a32.94,32.94,0,0,1,14.3,46.59,31.09,31.09,0,0,1-13.13,11.45L987,464.17H959.57Zm12.16-42.83q-4-3.5-11.9-3.5H929.16V420.3h14.23q7.89,0,11.9-3.43t4-9.77Q959.31,400.77,955.29,397.27Z"/><path class="cls-1" d="M1009.77,463.26Q999.42,460.54,993,456l8.41-18.9a57.38,57.38,0,0,0,29.89,8.93q14.76,0,14.76-7.37c0-2.59-1.41-4.51-4.21-5.76a77.23,77.23,0,0,0-13.52-3.95,129.66,129.66,0,0,1-17.08-4.72,28.8,28.8,0,0,1-11.78-8.09q-4.92-5.57-4.92-15A26,26,0,0,1,999,386.2q4.53-6.66,13.52-10.54t22.07-3.89a77.7,77.7,0,0,1,17.6,2,53.93,53.93,0,0,1,15.27,5.89l-7.9,19q-12.93-7-25.1-7-7.63,0-11.13,2.27a6.78,6.78,0,0,0-3.49,5.88q0,3.63,4.14,5.44a74.26,74.26,0,0,0,13.33,3.75,124.14,124.14,0,0,1,17.14,4.73,29.54,29.54,0,0,1,11.78,8q5,5.5,5,14.94a25.49,25.49,0,0,1-4.53,14.76q-4.53,6.6-13.59,10.54t-22,4A83.81,83.81,0,0,1,1009.77,463.26Z"/><path class="cls-1" d="M1101,393.9h-27.82V373.59h81.14V393.9h-27.7v70.27H1101Z"/><path class="cls-1" d="M1158.2,461.19a15.08,15.08,0,0,1-.07-21,16,16,0,0,1,21.16,0,13.93,13.93,0,0,1,4.14,10.48,14.09,14.09,0,0,1-4.2,10.48,15.42,15.42,0,0,1-21,0Z"/><path class="cls-1" d="M211.8,601.56h25.62v90.58H211.8Z"/><path class="cls-1" d="M341.85,601.56v90.58h-21.1l-40-48.26v48.26H255.66V601.56h21.1l40,48.27V601.56Z"/><path class="cls-1" d="M446.15,601.56v90.58h-21.1l-40-48.26v48.26H360V601.56h21.1l40,48.27V601.56Z"/><path class="cls-1" d="M484.13,687.87a46.31,46.31,0,0,1,0-82,57.84,57.84,0,0,1,51.63,0,46.31,46.31,0,0,1,0,82,57.76,57.76,0,0,1-51.63,0Zm38.24-18.37a23.32,23.32,0,0,0,8.79-9.12,29.85,29.85,0,0,0,0-27,23.25,23.25,0,0,0-8.79-9.12,25.44,25.44,0,0,0-24.85,0,23.27,23.27,0,0,0-8.8,9.12,29.93,29.93,0,0,0,0,27,23.34,23.34,0,0,0,8.8,9.12,25.51,25.51,0,0,0,24.85,0Z"/><path class="cls-1" d="M662.51,601.56l-38.82,90.58H598.46l-38.7-90.58h27.7l24.58,59,25.11-59Z"/><path class="cls-1" d="M725.4,674.54H687.1L680,692.14H653.84l40-90.58h25.23l40.12,90.58H732.52Zm-7.5-18.89-11.65-29-11.65,29Z"/><path class="cls-1" d="M781.17,621.88H753.35V601.56h81.14v20.32H806.8v70.26H781.17Z"/><path class="cls-1" d="M844.06,601.56h25.63v90.58H844.06Z"/><path class="cls-1" d="M907.79,687.87a46.32,46.32,0,0,1,0-82,57.87,57.87,0,0,1,51.64,0,46.32,46.32,0,0,1,0,82,57.78,57.78,0,0,1-51.64,0ZM946,669.5a23.27,23.27,0,0,0,8.8-9.12,29.85,29.85,0,0,0,0-27,23.2,23.2,0,0,0-8.8-9.12,25.43,25.43,0,0,0-24.84,0,23.2,23.2,0,0,0-8.8,9.12,29.85,29.85,0,0,0,0,27,23.27,23.27,0,0,0,8.8,9.12,25.49,25.49,0,0,0,24.84,0Z"/><path class="cls-1" d="M1083.59,601.56v90.58H1062.5l-40-48.26v48.26h-25.1V601.56h21.09l40,48.27V601.56Z"/><path class="cls-1" d="M1100.15,636.76h37.79v18.89h-37.79Z"/><path class="cls-1" d="M1154.5,601.56h42.83q14.88,0,26.4,5.56a42,42,0,0,1,17.86,15.79q6.35,10.23,6.34,23.94t-6.34,23.94a41.9,41.9,0,0,1-17.86,15.79q-11.52,5.56-26.4,5.56H1154.5Zm41.8,70.14q11.64,0,18.7-6.6t7-18.25q0-11.64-7-18.24t-18.7-6.6h-16.18V671.7Z"/><path class="cls-1" d="M1301,668.07h-14v24.07h-25.62V601.56h41.41q12.29,0,21.35,4.08a33,33,0,0,1,14.3,46.58,31,31,0,0,1-13.14,11.45l19.54,28.47h-27.43Zm12.16-42.83q-4-3.5-11.91-3.49H1287v26.53h14.23q7.89,0,11.91-3.43t4-9.77Q1317.16,628.74,1313.15,625.24Z"/><path class="cls-1" d="M1357.15,601.56h25.62v90.58h-25.62Z"/><path class="cls-1" d="M1492.63,601.56l-38.82,90.58h-25.24l-38.69-90.58h27.7l24.58,59,25.11-59Z"/><path class="cls-1" d="M1570.66,672.34v19.8h-72.73V601.56h71v19.8H1523.3v15.27h40.24v19.15H1523.3v16.56Z"/><path class="cls-1" d="M1671.08,601.56v90.58H1650l-40-48.26v48.26h-25.11V601.56H1606l40,48.27V601.56Z"/><path class="cls-1" d="M1687.9,689.17a15.1,15.1,0,0,1-.07-21,16,16,0,0,1,21.16,0,14,14,0,0,1,4.14,10.49,14.11,14.11,0,0,1-4.2,10.48,15.42,15.42,0,0,1-21,0Z"/><path class="cls-1" d="M444.84,506.15v19.92h40v19.8h-40v31.06H419.22V486.35h71v19.8Z"/><path class="cls-1" d="M512.71,567.74q-11.19-11-11.19-31.18V486.35h25.62v49.43q0,21.74,17.21,21.74t17.08-21.74V486.35h25.24v50.21q0,20.18-11.2,31.18t-31.38,11Q523.9,578.74,512.71,567.74Z"/><path class="cls-1" d="M604,486.35h25.63v70.26h43.22v20.32H604Z"/><path class="cls-1" d="M682.94,486.35h25.62v70.26h43.22v20.32H682.94Z"/><path class="cls-1" d="M801.21,544.45v32.48H775.59V544.06L741,486.35h27.05l21.48,36,21.48-36h24.84Z"/><path class="cls-1" d="M880,486.35h25.62v90.58H880Z"/><path class="cls-1" d="M1010.07,486.35v90.58H989l-40-48.27v48.27H923.88V486.35H945l40,48.26V486.35Z"/><path class="cls-1" d="M1047.47,506.66h-27.83V486.35h81.14v20.31h-27.69v70.27h-25.62Z"/><path class="cls-1" d="M1183.08,557.13v19.8h-72.72V486.35h71v19.8h-45.68v15.27H1176v19.15h-40.24v16.56Z"/><path class="cls-1" d="M1257.88,529.7h22.64v37.52a58.92,58.92,0,0,1-17.85,8.54,70.89,70.89,0,0,1-20.19,3,53.88,53.88,0,0,1-25.62-6A44.79,44.79,0,0,1,1199,556a49,49,0,0,1,0-48.66,44.65,44.65,0,0,1,18-16.76,55.29,55.29,0,0,1,26-6,57.88,57.88,0,0,1,22.77,4.27,43.75,43.75,0,0,1,16.82,12.29l-16.3,14.75q-9.19-10.1-22-10.09-11.64,0-18.76,7t-7.12,18.83a27.4,27.4,0,0,0,3.23,13.39,23.21,23.21,0,0,0,9.06,9.19,26.57,26.57,0,0,0,13.33,3.3,32.68,32.68,0,0,0,13.85-3Z"/><path class="cls-1" d="M1336.42,552.86h-14v24.07h-25.62V486.35h41.41q12.29,0,21.35,4.07a33,33,0,0,1,14.3,46.59,31.11,31.11,0,0,1-13.14,11.45l19.54,28.47h-27.43ZM1348.59,510q-4-3.5-11.91-3.5h-14.23v26.53h14.23q7.89,0,11.91-3.43t4-9.77Q1352.6,513.53,1348.59,510Z"/><path class="cls-1" d="M1453.27,559.33H1415l-7.12,17.6h-26.14l40-90.58h25.23l40.12,90.58h-26.66Zm-7.5-18.89-11.65-29-11.64,29Z"/><path class="cls-1" d="M1509.05,506.66h-27.82V486.35h81.13v20.31h-27.69v70.27h-25.62Z"/><path class="cls-1" d="M1644.66,557.13v19.8h-72.72V486.35h71v19.8H1597.3v15.27h40.24v19.15H1597.3v16.56Z"/><path class="cls-1" d="M1658.9,486.35h42.83q14.88,0,26.4,5.56A42,42,0,0,1,1746,507.7q6.33,10.21,6.34,23.94T1746,555.58a42,42,0,0,1-17.86,15.79q-11.52,5.57-26.4,5.56H1658.9Zm41.79,70.13q11.65,0,18.7-6.6t7.06-18.24q0-11.65-7.06-18.25t-18.7-6.6h-16.17v49.69Z"/><path class="cls-1" d="M1761.9,574a14,14,0,0,1-4.27-10.48,13.82,13.82,0,0,1,4.21-10.48,15.95,15.95,0,0,1,21.15,0,14,14,0,0,1,4.14,10.48,14.09,14.09,0,0,1-4.2,10.48,15.42,15.42,0,0,1-21,0Z"/></svg>