<svg id="Layer_6" data-name="Layer 6" xmlns="http://www.w3.org/2000/svg" viewBox="0 0 1920 1080"><defs><style>.cls-1{fill:none;stroke:#fff;stroke-miterlimit:10;stroke-width:2.33px;}.cls-2{fill:#fff;}</style></defs><path class="cls-1" d="M830.28,502.39,799.61,597H771l-18.1-57.55L734,597H705.32l-30.67-94.57h27.56l19,60.39,20-60.39h24.59l19,60.93,19.86-60.93Z"/><path class="cls-1" d="M839.87,502.39h26.75V597H839.87Z"/><path class="cls-1" d="M905.79,523.6h-29V502.39h84.7V523.6H932.54V597H905.79Z"/><path class="cls-1" d="M1061.41,502.39V597h-26.75V560.08H998.19V597H971.44V502.39h26.75v35.53h36.47V502.39Z"/><path class="cls-1" d="M1130.51,587.36q-11.68-11.48-11.69-32.55V502.39h26.75V554q0,22.69,18,22.69T1181.37,554V502.39h26.34v52.42q0,21.08-11.68,32.55t-32.76,11.49Q1142.2,598.85,1130.51,587.36Z"/><path class="cls-1" d="M1236.76,596q-10.82-2.84-17.57-7.57l8.79-19.72a56.83,56.83,0,0,0,14.72,6.76,56.07,56.07,0,0,0,16.48,2.56q15.4,0,15.4-7.7,0-4.05-4.39-6a81.16,81.16,0,0,0-14.12-4.12,134,134,0,0,1-17.83-4.93,30.06,30.06,0,0,1-12.29-8.44q-5.13-5.8-5.13-15.67a27.15,27.15,0,0,1,4.72-15.61q4.74-6.94,14.12-11t23-4.05a81.09,81.09,0,0,1,18.38,2.1,56.26,56.26,0,0,1,15.94,6.14l-8.24,19.86q-13.51-7.29-26.21-7.3-8,0-11.62,2.37a7.11,7.11,0,0,0-3.65,6.15q0,3.78,4.33,5.67a77.85,77.85,0,0,0,13.91,3.92,130,130,0,0,1,17.9,4.93,30.91,30.91,0,0,1,12.29,8.37q5.21,5.74,5.2,15.61a26.63,26.63,0,0,1-4.72,15.4q-4.74,6.88-14.19,11t-23,4.12A87.43,87.43,0,0,1,1236.76,596Z"/><path class="cls-2" d="M602.23,528.12a38.43,38.43,0,0,1-.81-7.81,65.3,65.3,0,0,1,1.89-14.8C606,484.24,616.5,446,623.22,425.57c1.08-3.23,3-6.46,4.31-9.69a9.63,9.63,0,0,1,5.12-4c2.42,0,4,1.34,5.11,4.3-3,8.89-6.19,18.31-14.54,45.22-2.69,9.43-4.84,19.38-7,29.07-1.89,9.69-3.77,19.65-4,30.15,4-1.08,5.38-4,7.27-6.46,7-11.57,14.53-22.88,21.53-34.72,11.3-19.38,22.07-39.57,32.84-59.22,2.69-4.3,4.84-9.15,8.07-11.84a5.18,5.18,0,0,1,3.23-1.08,4.24,4.24,0,0,1,3.23,1.35c.27.27.54,1.07,1.08,1.88,0,.54.27,1.35.27,2.16a29.16,29.16,0,0,1-1.35,7c-5.92,17.23-8.61,35-11.57,52.49-.81,6.19-.27,12.11-.27,18.3A16.71,16.71,0,0,0,680,501.2h1.07c2.43,0,4-2.15,5.39-3.5,12.11-12.38,20.72-27.45,28-43.06,3-7,5.65-14,8.35-21,1.07-2.42,3.23-6.73,5.65-7,10.5.54,28.8,2.42,42,1.62a4,4,0,0,1,3.23,4,6.33,6.33,0,0,1-1.35,4.31c-.81,1.35-9.42,1.89-18,1.89-8.88,0-18.31-.54-21.27-.54a78.44,78.44,0,0,0-4.84,11.3c-7,16.42-15.07,32.57-26.38,46.57-3.23,4-6.46,7.8-10,11.57A23.22,23.22,0,0,1,680,513c-7.27-1.07-10.5-6.46-12.11-12.92a49.78,49.78,0,0,1-2.7-16.41c0-3.23.54-7,.81-10.23L669.25,453c-3.5,1.62-4,4.85-5.38,7.27-10.77,19.38-21.54,38.76-34.45,57.06-3,4.31-6.46,8.61-9.69,12.65a13.56,13.56,0,0,1-10.5,5.92C604.92,535.38,603.31,532.42,602.23,528.12Z"/><path class="cls-2" d="M767,467c-4.58-2.16-6.46-6.46-6.73-11.85-.81-5.92.54-11.84,2.69-17.49a62.27,62.27,0,0,0,3-7.81v-2.15c0-1.62-.27-2.69-.27-3.77,0-11,7.54-16.15,21-16.15,9.43,0,14.54,4.31,14.54,12.65a52.79,52.79,0,0,1-.81,6.46l.27.27a38.84,38.84,0,0,0,8.61.81c3.23,0,7-.27,10.23-.27a31.85,31.85,0,0,1,7-.54,15.71,15.71,0,0,1,5.38.54c3,0,4.31,2.42,3.77,5.38,0,0-.54.27-.54.54a1.4,1.4,0,0,1-.53,1.08c-2.7,3-6.46,3-10.5,3s-8.61.27-12.92.27c-5.12,0-10.5,0-13.19.54-.81.53-5.11,8.61-6.46,11.3-3,5.38-6.46,10.77-11.84,14.8-2.69,2.16-5.39,3.5-8.35,3.5A8.57,8.57,0,0,1,767,467Zm5.11-9.69c5.38-1.62,11-9.69,13.46-18.58l-.27-.26c-2.42-1.89-6.46-2.7-10.5-2.16-3.5,6.46-5.38,11.31-5.38,15.34a7.74,7.74,0,0,0,2.15,5.66Zm18.3-32.3c0-2.16-2.15-3.77-4.3-4.31h-.54c-2.42,0-5.65,2.69-5.65,5.38v.54a35,35,0,0,1,8.61,1.62C789.57,428.8,790.37,426.91,790.37,425Z"/><path class="cls-2" d="M819.44,468.09c0-2.69.81-5.92,1.35-10.22,3.23-17,12.92-47.92,14.53-49.26a6.35,6.35,0,0,1,4.31-1.89A4.59,4.59,0,0,1,844.2,410c.81,5.39-1.34,9.42-3.5,15.08-3,8.34-5.38,15.88-6.19,23.41l6.73-10.76c8.35-11,20.46-26.11,31.23-34.46,7-5.65,16.68-10.76,24.22-10.76a11.23,11.23,0,0,1,7.81,3c3.5,3.23,5.38,6.73,5.38,11a11.34,11.34,0,0,1-.81,5.12c-2.15,2.42-4.3,3.5-6.73,2.15-3.5-2.15-2.42-7-4.57-9.42a9.58,9.58,0,0,0-3-.81c-4.31,0-10.5,4-15.88,7.54-16.42,12.65-31.5,33.92-42.53,51.41-3.77,6.19-4.85,11.84-10.77,11.84C820.79,474,819.44,471.86,819.44,468.09Z"/><path class="cls-2" d="M911.22,473.21a7.39,7.39,0,0,1-2.15-5.12c0-1.61.81-3.76,1.07-5.65,3-10.77,5.39-21.53,8.35-32.3a712.63,712.63,0,0,1,38-109.55c1.89-3.77,4-7.8,6.19-11.3,1.89-3,3.5-6.19,7.27-7.27l1.35-.27c2.15,0,4,1.61,4.57,4.31-3.77,8.07-8.61,16.68-12.38,25.3-4,9.42-8.08,18.3-11.57,27.72s-6.46,18.3-9.69,27.73c-3,8.88-6.2,17.76-8.62,29.07,10-8.08,17.5-17,29.88-18.31,7,.27,10.23,4.85,11,12.38-4,16.15-14.26,26.92-31.49,32.3,2.69,6.46,5.92,10.77,10.77,13.73a27.62,27.62,0,0,0,8.88,1.89c7.54,0,13.19-3.77,17.23-6.2,5.65-4.3,7.53-7.8,11.84-13.18,1.89-2.7,3.5-7.27,6.73-8.62h1.62c3.49,0,5.38,3.5,4.3,5.39-5.11,10.76-11.84,20.45-22.07,26.91a34.73,34.73,0,0,1-18.57,5.65c-11,0-21.27-5.38-26.65-14-2.15-3.5-4.31-6.73-6.46-10.77-4.31,5.12-4.31,6.46-7.54,15.34-2.15,7-1.61,11.58-5.92,15.08a6.07,6.07,0,0,1-3,.8A4.48,4.48,0,0,1,911.22,473.21Zm39.3-45.49c5.92-4.85,11.84-10.23,12.92-19.92-11.84,4.85-18.3,10.77-24.49,21.53a7.13,7.13,0,0,0,4.3,1.62C945.67,431,948.37,429.33,950.52,427.72Z"/></svg>