<svg id="Layer_1" data-name="Layer 1" xmlns="http://www.w3.org/2000/svg" viewBox="0 0 1927.63 650.65"><defs><style>.cls-1{fill:none;stroke:#fff;stroke-miterlimit:10;stroke-width:2px;}</style></defs><path class="cls-1" d="M568.85,349.71A42.51,42.51,0,0,1,552,333.88a46.29,46.29,0,0,1,0-46,42.58,42.58,0,0,1,16.81-15.83A50.67,50.67,0,0,1,593,266.4a51.71,51.71,0,0,1,21.15,4.16,40.72,40.72,0,0,1,15.65,12l-15.41,13.93q-8.31-10-20.17-10a25,25,0,0,0-12.41,3.05,21.27,21.27,0,0,0-8.43,8.62,28.7,28.7,0,0,0,0,25.55,21.15,21.15,0,0,0,8.43,8.62,24.9,24.9,0,0,0,12.41,3.06q11.87,0,20.17-10l15.41,13.94a40.72,40.72,0,0,1-15.65,12A51.87,51.87,0,0,1,593,355.4,50.68,50.68,0,0,1,568.85,349.71Z"/><path class="cls-1" d="M657.49,349.65a43.76,43.76,0,0,1,0-77.51,54.69,54.69,0,0,1,48.78,0,43.76,43.76,0,0,1,0,77.51,54.6,54.6,0,0,1-48.78,0Zm36.12-17.36a21.92,21.92,0,0,0,8.32-8.62,28.28,28.28,0,0,0,0-25.55,22.06,22.06,0,0,0-8.32-8.62,24.1,24.1,0,0,0-23.47,0,22,22,0,0,0-8.31,8.62,28.2,28.2,0,0,0,0,25.55,21.9,21.9,0,0,0,8.31,8.62,24,24,0,0,0,23.47,0Z"/><path class="cls-1" d="M823.57,268.11v85.58H803.64l-37.78-45.6v45.6H742.15V268.11h19.92l37.78,45.6v-45.6Z"/><path class="cls-1" d="M858.9,287.3H832.61V268.11h76.66V287.3H883.1v66.39H858.9Z"/><path class="cls-1" d="M971.37,337.06H935.19l-6.73,16.63H903.77l37.77-85.58h23.84l37.9,85.58H978.1Zm-7.09-17.85-11-27.38-11,27.38Z"/><path class="cls-1" d="M1027.42,349.71a42.42,42.42,0,0,1-16.8-15.83,46.22,46.22,0,0,1,0-46,42.49,42.49,0,0,1,16.8-15.83,50.67,50.67,0,0,1,24.15-5.68,51.71,51.71,0,0,1,21.15,4.16,40.72,40.72,0,0,1,15.65,12L1073,296.47q-8.31-10-20.17-10a25,25,0,0,0-12.41,3.05,21.27,21.27,0,0,0-8.43,8.62,28.7,28.7,0,0,0,0,25.55,21.15,21.15,0,0,0,8.43,8.62,24.9,24.9,0,0,0,12.41,3.06q11.87,0,20.17-10l15.41,13.94a40.72,40.72,0,0,1-15.65,12,51.87,51.87,0,0,1-21.15,4.16A50.68,50.68,0,0,1,1027.42,349.71Z"/><path class="cls-1" d="M1116.61,287.3h-26.29V268.11H1167V287.3h-26.17v66.39h-24.2Z"/><path class="cls-1" d="M1221.44,345q-10.57-10.39-10.58-29.47V268.11h24.21v46.7q0,20.54,16.26,20.54t16.14-20.54v-46.7h23.83v47.43q0,19.08-10.57,29.47t-29.65,10.39Q1232,355.4,1221.44,345Z"/><path class="cls-1" d="M1317.59,352.83A49.57,49.57,0,0,1,1301.7,346l7.94-17.85a51.6,51.6,0,0,0,13.33,6.11,50.63,50.63,0,0,0,14.91,2.32q13.93,0,13.94-7c0-2.44-1.33-4.25-4-5.44a73.8,73.8,0,0,0-12.78-3.73,121,121,0,0,1-16.14-4.46,27.12,27.12,0,0,1-11.12-7.64q-4.65-5.25-4.65-14.18a24.59,24.59,0,0,1,4.28-14.12q4.27-6.3,12.78-10t20.84-3.67a73.7,73.7,0,0,1,16.63,1.89,50.87,50.87,0,0,1,14.42,5.57l-7.45,18q-12.23-6.6-23.72-6.6-7.21,0-10.51,2.13a6.44,6.44,0,0,0-3.31,5.57q0,3.42,3.92,5.13a71.06,71.06,0,0,0,12.59,3.55,117.19,117.19,0,0,1,16.2,4.46,28,28,0,0,1,11.12,7.58q4.71,5.19,4.71,14.12a24.12,24.12,0,0,1-4.28,13.94q-4.28,6.23-12.84,10t-20.78,3.73A79.16,79.16,0,0,1,1317.59,352.83Z"/></svg>