<svg id="Discover" xmlns="http://www.w3.org/2000/svg" viewBox="0 0 1920 1080"><defs><style>.cls-1{fill:none;stroke:#fff;stroke-miterlimit:10;stroke-width:2.33px;}.cls-2{fill:#fff;}</style></defs><path class="cls-1" d="M470.9,646.55v18.92H401.41V578.93h67.88v18.91H425.65v14.59H464.1v18.3H425.65v15.82Z"/><path class="cls-1" d="M566.83,578.93v86.54H546.68l-38.2-46.12v46.12h-24V578.93h20.16L542.85,625V578.93Z"/><path class="cls-1" d="M642.13,620.34h21.63V656.2a56.53,56.53,0,0,1-17.06,8.16,68.12,68.12,0,0,1-19.29,2.84,51.65,51.65,0,0,1-24.48-5.75,42.88,42.88,0,0,1-17.06-16,46.79,46.79,0,0,1,0-46.48,42.65,42.65,0,0,1,17.19-16,52.75,52.75,0,0,1,24.85-5.75,55.35,55.35,0,0,1,21.76,4.08A42,42,0,0,1,665.74,593l-15.58,14.1q-8.77-9.64-21-9.65-11.13,0-17.93,6.74t-6.8,18A26.09,26.09,0,0,0,607.51,635a22.07,22.07,0,0,0,8.65,8.78,25.42,25.42,0,0,0,12.74,3.15,31.23,31.23,0,0,0,13.23-2.84Z"/><path class="cls-1" d="M737.32,648.66H700.73l-6.8,16.81H669l38.21-86.54h24.1l38.33,86.54H744.12Zm-7.17-18L719,602.91l-11.12,27.7Z"/><path class="cls-1" d="M833.26,620.34H854.9V656.2a56.76,56.76,0,0,1-17.06,8.16,68.12,68.12,0,0,1-19.29,2.84,51.6,51.6,0,0,1-24.48-5.75,42.88,42.88,0,0,1-17.06-16A46.79,46.79,0,0,1,777,599a42.69,42.69,0,0,1,17.18-16A52.78,52.78,0,0,1,819,577.2a55.35,55.35,0,0,1,21.76,4.08A42,42,0,0,1,856.88,593l-15.58,14.1q-8.79-9.64-21-9.65-11.13,0-17.93,6.74t-6.8,18A26.09,26.09,0,0,0,798.64,635a22.1,22.1,0,0,0,8.66,8.78A25.38,25.38,0,0,0,820,646.92a31.2,31.2,0,0,0,13.23-2.84Z"/><path class="cls-1" d="M940,646.55v18.92H870.47V578.93h67.88v18.91H894.71v14.59h38.44v18.3H894.71v15.82Z"/><path class="cls-1" d="M1031.69,665.47l-.25-45.87-22.25,37.34H998.31l-22.13-36.1v44.63H953.55V578.93h20.16l30.41,49.94,29.67-49.94h20.15l.25,86.54Z"/><path class="cls-1" d="M1141,646.55v18.92H1071.5V578.93h67.87v18.91h-43.64v14.59h38.45v18.3h-38.45v15.82Z"/><path class="cls-1" d="M1236.92,578.93v86.54h-20.15l-38.21-46.12v46.12h-24V578.93h20.15l38.2,46.11V578.93Z"/><path class="cls-1" d="M1272.65,598.34h-26.58V578.93h77.51v19.41h-26.45v67.13h-24.48Z"/><path class="cls-1" d="M614,482.38v19h38.2v18.92H614V550H589.5V463.47h67.87v18.91Z"/><path class="cls-1" d="M706.7,527H693.35v23H668.87V463.47h39.56q11.75,0,20.4,3.89a31.48,31.48,0,0,1,13.66,44.51,29.65,29.65,0,0,1-12.55,10.94L748.61,550H722.4Zm11.62-40.92c-2.55-2.22-6.35-3.34-11.37-3.34h-13.6V508.1H707c5,0,8.82-1.09,11.37-3.28s3.83-5.29,3.83-9.33S720.88,488.32,718.32,486.09Z"/><path class="cls-1" d="M760.36,463.47h24.48V550H760.36Z"/><path class="cls-1" d="M821,546a42.92,42.92,0,0,1-17-16,46.81,46.81,0,0,1,0-46.49,43,43,0,0,1,17-16,51.23,51.23,0,0,1,24.41-5.75,52.44,52.44,0,0,1,21.39,4.21,41.2,41.2,0,0,1,15.83,12.11l-15.58,14.1Q858.64,482,846.65,482a25.19,25.19,0,0,0-12.55,3.09,21.45,21.45,0,0,0-8.53,8.72,29.06,29.06,0,0,0,0,25.84,21.42,21.42,0,0,0,8.53,8.71,25.19,25.19,0,0,0,12.55,3.09q12,0,20.4-10.13l15.58,14.09a41.13,41.13,0,0,1-15.83,12.12,52.44,52.44,0,0,1-21.39,4.2A51.23,51.23,0,0,1,821,546Z"/><path class="cls-1" d="M911.19,482.88H884.6V463.47h77.52v19.41H935.67V550H911.19Z"/><path class="cls-1" d="M971.27,463.47h24.48V550H971.27Z"/><path class="cls-1" d="M1032.16,545.93a44.24,44.24,0,0,1,0-78.38,55.17,55.17,0,0,1,49.33,0,44.25,44.25,0,0,1,0,78.38,55.26,55.26,0,0,1-49.33,0Zm36.53-17.56a22.25,22.25,0,0,0,8.41-8.71,28.56,28.56,0,0,0,0-25.84,22.27,22.27,0,0,0-8.41-8.72,24.34,24.34,0,0,0-23.74,0,22.25,22.25,0,0,0-8.4,8.72,28.56,28.56,0,0,0,0,25.84,22.22,22.22,0,0,0,8.4,8.71,24.34,24.34,0,0,0,23.74,0Z"/><path class="cls-1" d="M1200.11,463.47V550H1180l-38.2-46.12V550h-24V463.47h20.16l38.2,46.11V463.47Z"/><path class="cls-1" d="M1217.42,463.47h24.48V530.6h41.29V550h-65.77Z"/><path class="cls-1" d="M1362.32,531.09V550h-69.49V463.47h67.88v18.91h-43.64V497h38.45v18.3h-38.45v15.82Z"/><path class="cls-1" d="M1385.93,549.14a50,50,0,0,1-16.07-6.92l8-18.05a51.76,51.76,0,0,0,13.48,6.18,51.18,51.18,0,0,0,15.08,2.35q14.1,0,14.1-7.05,0-3.71-4-5.5a74.64,74.64,0,0,0-12.92-3.77,122.88,122.88,0,0,1-16.32-4.51,27.42,27.42,0,0,1-11.25-7.73q-4.69-5.31-4.7-14.34a24.82,24.82,0,0,1,4.33-14.28q4.32-6.36,12.92-10.08t21.08-3.71a74.22,74.22,0,0,1,16.81,1.92,51.34,51.34,0,0,1,14.59,5.63l-7.54,18.17q-12.36-6.68-24-6.68-7.29,0-10.63,2.17a6.5,6.5,0,0,0-3.34,5.62q0,3.46,4,5.2a72.33,72.33,0,0,0,12.73,3.58,120.23,120.23,0,0,1,16.39,4.51,28.45,28.45,0,0,1,11.25,7.67q4.75,5.25,4.76,14.28a24.36,24.36,0,0,1-4.33,14.09q-4.33,6.32-13,10.08t-21,3.77A80,80,0,0,1,1385.93,549.14Z"/><path class="cls-1" d="M1465.92,549.14a50,50,0,0,1-16.07-6.92l8-18.05a51.76,51.76,0,0,0,13.48,6.18,51.18,51.18,0,0,0,15.08,2.35q14.1,0,14.1-7.05,0-3.71-4-5.5a74.64,74.64,0,0,0-12.92-3.77,122.88,122.88,0,0,1-16.32-4.51,27.42,27.42,0,0,1-11.25-7.73q-4.69-5.31-4.7-14.34a24.82,24.82,0,0,1,4.33-14.28q4.32-6.36,12.92-10.08t21.08-3.71a74.22,74.22,0,0,1,16.81,1.92,51.34,51.34,0,0,1,14.59,5.63l-7.54,18.17q-12.36-6.68-24-6.68-7.29,0-10.63,2.17a6.5,6.5,0,0,0-3.34,5.62q0,3.46,4,5.2a72.33,72.33,0,0,0,12.73,3.58,119.63,119.63,0,0,1,16.38,4.51,28.31,28.31,0,0,1,11.25,7.67q4.77,5.25,4.76,14.28a24.36,24.36,0,0,1-4.32,14.09q-4.33,6.32-13,10.08t-21,3.77A80,80,0,0,1,1465.92,549.14Z"/><path class="cls-2" d="M547.5,284.68v1.26c0,2.78-1,5.06-2,7.59-5.06,13.64-10.62,27.54-15.92,41.44-4.3,11.37-8.85,22.49-13.14,33.86-4.8,11.12-8.09,23-10.87,34.87-4.3,17.19-8.09,34.62-11.62,52.06-1,5.56-1.52,11.12-2.53,16.93-.25,2.28-.51,2.28-4,5.06h-.51c-1.52,0-2.53-1-3.54-2.28a20.15,20.15,0,0,1-1-5.05,53.09,53.09,0,0,1,.76-5.81,418.19,418.19,0,0,1,8.34-42.46,30.72,30.72,0,0,0,1-8.08c-2.78,3.53-5.56,7.07-8.34,10.1a38,38,0,0,1-10.87,9.35,14.16,14.16,0,0,1-8.08,2.78,9.86,9.86,0,0,1-4.55-1,7.06,7.06,0,0,1-3-7.33,34.56,34.56,0,0,1,2-8.84c2.52-7.08,7.07-13.14,12.13-18.45,5.3-5.81,11.37-9.1,19.71-8.08.5,0,1-.51,2.53-.76a139.53,139.53,0,0,0,14.4-30.33c7.83-22.24,15.42-44.47,24.51-66.46,1.77-4.55,3.54-9.35,6.57-12.38A5.54,5.54,0,0,1,543,281.4a4.84,4.84,0,0,1,3,1A8.7,8.7,0,0,1,547.5,284.68ZM488.87,400.92C481,403.2,477.25,407.24,474,412c-4.8,6.32-5.3,8.85-5.81,13.9C476.74,419.88,482.81,411.79,488.87,400.92Zm40.69,25.53a14.14,14.14,0,0,1,.5-4.55,65,65,0,0,1,6.32-21.23c1.77-3.54,4-5.56,7.33-5.56a4.56,4.56,0,0,1,3.54,3.54l.25,1.26c0,1.77-1.26,3.29-2,5.06-3.79,6.82-6.32,14.91-6.32,21.23a18.14,18.14,0,0,0,.25,3.79c1,5.05,2.78,7.07,6.83,7.07,4.29,0,11.12-3,17.43-8.59,4.8-4.55,10.36-10.11,14.16-15.42,1.26-1.76,2.77-3.79,4-5.3a6.13,6.13,0,0,1,5-2.78c4.3,0,4.3,4.8,3.29,6.82-7.33,11.63-18.45,23.25-29.57,29.82a35.71,35.71,0,0,1-17.18,4.8C533.6,446.16,529.56,436.56,529.56,426.45Zm16.17-47a7.25,7.25,0,0,1,.76-4,8.25,8.25,0,0,1,5.81-4.8c3.54,3,4.55,4,4.55,6.06,0,1-.25,2.78-.51,4.81a7.61,7.61,0,0,1-5.05,2.27A6.71,6.71,0,0,1,545.73,379.44Zm32.35,87.95c-1.52-2.78-3-5.06-3-8.6a17.54,17.54,0,0,1,1.52-6.06c1.52-3.54,4.29-6.32,7.33-9.35C590,438.07,597,434,604.1,430.24c2.28-1.27,6.32-3,9.86-4.8v-1.52a8.08,8.08,0,0,0-1.77-5.56c-1.77-2.53-7.08-2.27-11.37-2.27h-3c-6.83,0-11.63-1.27-13.9-5.31a17.07,17.07,0,0,1-1-6.57,29.85,29.85,0,0,1,2.78-11.62c4.54-9.86,10.61-17.95,19.45-24.26A19.09,19.09,0,0,1,616,364.79a18.15,18.15,0,0,1,7.33,1.51,16.86,16.86,0,0,1,8.34,9.35c2.53,6.07,2.53,12.39,2,19-.51,3.28-2.27,5.05-4.55,5.3a5.1,5.1,0,0,1-4.55-2,31.34,31.34,0,0,1-.5-7.07v-1.77c.25-4.55.25-9.35-3.54-12.64a5.7,5.7,0,0,0-4.3-1.77,12.89,12.89,0,0,0-5.81,1.77c-5,3-8.34,7.58-11.37,12.39-3,5.3-6.32,10.36-6.32,16.42,1,2,3.54,2,5.56,2s6.07-.25,10.62-.25c8.33.25,12.63,5.05,15.66,13.9,10.11-3,25-9.6,35.89-15.67a4.17,4.17,0,0,1,2.27-.5c2,0,3.79,1.51,4,4.29v.76c0,2-1.76,3.54-5,5.56-9.35,5.56-13.39,7.07-22.24,10.87-3.79,1.76-9.35,3.79-14.91,6.31a38,38,0,0,1-3,9.1c-6.32,15.67-17.69,27-30.32,30.07C585.66,472.44,581.87,470.92,578.08,467.39Zm21.22-10.11a32.5,32.5,0,0,0,12.89-19.71c-5.05,2-17.94,8.59-24,14.91a9.44,9.44,0,0,0-2.52,5.81,9.15,9.15,0,0,0,.5,2.53,3.49,3.49,0,0,0,2.78,1.51C592.23,462.33,596.77,459.55,599.3,457.28ZM660.71,431a25.33,25.33,0,0,1-2.27-10.87,48.85,48.85,0,0,1,1.26-9.35c3.54-12.13,8.59-22.24,18.7-29.82,4-2.53,8.09-4.3,12.38-4.3a18.94,18.94,0,0,1,4.8.76c5.06,2.53,7.33,6.57,8.09,12.13v3c0,3.28-.51,6.31-3,8.59a11.34,11.34,0,0,1-3.54.76c-1.52,0-3-1-4.3-3,0-2.27,1-4.8,1-7.07a6.73,6.73,0,0,0-3.28-5.81c-4.8.75-8.09,4.54-11.88,8.08-6.32,6.82-9.85,17.69-11.12,27A12.33,12.33,0,0,0,674.36,432a13.9,13.9,0,0,0,6.57,1.26c7.58,0,16.93-4,23.25-9.1,6.57-4.29,10.86-8.08,16.67-13.39,2-2,3.54-3.79,5.56-5.56A5.18,5.18,0,0,1,730,403.7a4.85,4.85,0,0,1,3,1c1.52,1.26,1.27,2.27,1,4.29a10.81,10.81,0,0,1-3.53,4.8c-7.08,6.57-14.41,13.14-22.5,18.45-5.05,3.28-11.11,8.34-20.21,9.35a24.23,24.23,0,0,1-5.81.76C672.59,442.37,664.75,438.32,660.71,431Zm58.63,20.47a14.8,14.8,0,0,1-4.3-11.12c.26-12.89,2.28-25,10.11-35.38,3.29-5.06,3.29-5.06,11.12-7.84a6.27,6.27,0,0,1,5.31,2.78c1.26,1.27,2.78,3,3.79,4.3a35.71,35.71,0,0,0,7.33.76,81.34,81.34,0,0,0,11.11-.76c4.3-.25,8.85-.51,12.89-.51h1.52c2.78,0,4.8.51,6.57,2a4.81,4.81,0,0,1,1,4.29c-1.52,2.78-4,3.29-6.82,3.29-7.33,0-14.91,0-22.24.5h-3c-2,0-4.05,0-5.82,1-2,2-2,5.06-2.27,7.33-1.77,9.35-5,17.44-11.12,24.51-3,3.54-6.06,5.82-10.11,5.82A12.15,12.15,0,0,1,719.34,451.47Zm17.44-34.63a4.58,4.58,0,0,0-1.27-2.77,16.77,16.77,0,0,0-4.8-.76c-3.54,6.82-5.56,13.64-5.56,20.72a56.06,56.06,0,0,0,.51,6.57C732.48,435,736.27,427.21,736.78,416.84Zm40.93,39.43c-3.28-4.55-3.79-8.85-3.28-13.65a365.36,365.36,0,0,1,9.1-56.86c.5-2.78,1-5.81,4.29-7.33a3.07,3.07,0,0,1,2-.5c2,0,3.29,1,4.3,3.79-4,20-8.59,40.18-9.6,62.67a111.18,111.18,0,0,0,6.57-9.86l20.72-33.61c2-3,3.54-6.82,7.58-6.82,5.05,0,6.07,4.8,12.89,7.58,6.06,2.28,11.87,2.28,19.2,3.54a3.28,3.28,0,0,1,2,3c0,2.53-1.76,5.56-5,5.56-6.82,0-19.21-2.78-28.05-7.83-1.51,2.27-2.53,4-3.54,5.81-6.57,10.36-12.88,20.47-19.2,30.83-2.53,3.79-5.56,7.83-8.09,11.12-2,2.53-4,3.79-6.82,3.79A9.42,9.42,0,0,1,777.71,456.27Zm80.61-6.57c-4.8-2-8.33-4.3-11.12-9.35a38.46,38.46,0,0,1-2.77-14.91,65.78,65.78,0,0,1,.75-7.33c2.28-15.92,9.1-27,19-39.68,4.54-6.06,10.11-9.85,14.65-9.85,3.54,0,5.82,1.77,7.84,4,1.77,2,2.27,4.8,2.27,8.09,0,4.8-1.51,10.36-5,14.15-6.57,7.83-14.15,14.91-23.76,17.94a18.79,18.79,0,0,0-4,1.52,29.58,29.58,0,0,0-2,11.62,36,36,0,0,0,.25,5.06,15.25,15.25,0,0,0,4.3,9.35,16.79,16.79,0,0,0,9.09,2.27,29.12,29.12,0,0,0,12.64-3c18.45-9.35,24.51-15.16,41.44-29.82,2.28-2,4.3-4.55,6.07-4.8,3,0,3.54,2,4,4.8a10.25,10.25,0,0,1-2.53,4.55L917.2,425.44c-12.63,11.12-32.34,25.77-50,25.77A26.09,26.09,0,0,1,858.32,449.7Zm21-64.95a12.79,12.79,0,0,0,.5-3,2.75,2.75,0,0,0-1-2.28c-7.33,2.28-11.62,8.09-19.45,23.76C868.43,398.9,876.52,391.07,879.3,384.75Zm36.89,56.86c0-2.53.76-5.56,1.27-9.6,3-15.92,12.13-45,13.64-46.25a6,6,0,0,1,4-1.77,4.31,4.31,0,0,1,4.29,3c.76,5.05-1.26,8.84-3.28,14.15-2.78,7.83-5.06,14.91-5.82,22l6.32-10.11c7.84-10.36,19.21-24.51,29.32-32.34,6.56-5.31,15.66-10.11,22.74-10.11a10.54,10.54,0,0,1,7.33,2.78c3.28,3,5.05,6.32,5.05,10.36a10.62,10.62,0,0,1-.76,4.8c-2,2.28-4,3.29-6.31,2-3.29-2-2.28-6.57-4.3-8.84A9.06,9.06,0,0,0,987,381c-4,0-9.86,3.79-14.91,7.08-15.41,11.87-29.57,31.84-39.93,48.26-3.53,5.82-4.55,11.12-10.11,11.12C917.46,447.17,916.19,445.15,916.19,441.61Z"/></svg>