<svg id="Layer_3" data-name="Layer 3" xmlns="http://www.w3.org/2000/svg" xmlns:xlink="http://www.w3.org/1999/xlink" viewBox="0 0 1920 1080"><defs><style>.cls-1{fill:none;stroke:#fff;stroke-miterlimit:10;stroke-width:2.33px;}.cls-2{fill:url(#linear-gradient);}</style><linearGradient id="linear-gradient" x1="635.67" y1="322.29" x2="1263.62" y2="684.84" gradientUnits="userSpaceOnUse"><stop offset="0.17" stop-color="#f67b2d"/><stop offset="0.87" stop-color="#ff4713"/></linearGradient></defs><path class="cls-1" d="M827.34,299.77l-30.2,93.15H768.93L751.1,336.23l-18.63,56.69H704.26l-30.21-93.15H701.2L720,359.25l19.69-59.48h24.22l18.76,60,19.56-60Z"/><path class="cls-1" d="M911.57,372.56v20.36H836.79V299.77h73.05v20.36h-47v15.7h41.38v19.7H862.87v17Z"/><path class="cls-1" d="M1027.33,374.82H987.94l-7.32,18.1H953.75l41.11-93.15h25.95l41.25,93.15h-27.41Zm-7.72-19.43-12-29.8-12,29.8Z"/><path class="cls-1" d="M1110.22,368.17h-14.37v24.75h-26.34V299.77h42.58q12.63,0,22,4.2a32.51,32.51,0,0,1,14.37,12,32.85,32.85,0,0,1,5.06,18.3,32.51,32.51,0,0,1-4.72,17.63,31.94,31.94,0,0,1-13.51,11.77l20.09,29.28h-28.21Zm12.51-44q-4.12-3.6-12.24-3.6h-14.64v27.28h14.64q8.12,0,12.24-3.53t4.13-10Q1126.86,327.72,1122.73,324.13Z"/><path class="cls-1" d="M1242.75,372.56v20.36H1168V299.77h73v20.36h-47v15.7h41.38v19.7h-41.38v17Z"/><path class="cls-2" d="M614.7,379.34a13,13,0,0,1-1,5.08c-5.08,2.53-8.12,8.12-10.66,13.44-4.82,10.66-9.89,21.32-14.46,31.72-5.84,13.71-11.42,27.41-16.5,41.37-6.59,18-13.19,35.78-17.51,54.81-2,7.86-3.29,16-4.82,23.6a54.64,54.64,0,0,0-.5,6.85,16.21,16.21,0,0,0,1,6.09,32,32,0,0,0,10.15,1.27c5.08,0,10.15-.51,14.46-.51,8.89,0,17.51.25,23.6-1.78,3,.76,3.81,2,4.06,3.3,0,2.54-1,4.57-3.29,5.58a54.25,54.25,0,0,1-6.09,1.53c-10.15.76-24.62,1-35.28,1.77H553.8c-9.13-1-11.67-3.3-14.21-12.43,2-28.93,10.91-58.37,20.81-85,4.57-12.94,9.39-25.63,14.46-38.57.77-2,1.78-4.06,2.54-5.84.76-2.28,1.78-4.31,2.54-6.34,3.55-8.12,7.36-16.24,11.17-24.36,4.06-7.87,7.86-16,12.94-23.09,1.52-2.54,3.55-4.57,7.36-4.06A6.67,6.67,0,0,1,614.7,379.34ZM752.24,504.7c0,2.79-1.27,3.8-4.32,4.56-19,2.29-24.61,2.54-37.3,5.08-1.52,2.28-5.33,8.12-7.1,10.15-5.33,7.36-11.42,14.21-19.8,18.52a25.85,25.85,0,0,1-11.16,2.79,29.32,29.32,0,0,1-9.14-1.77,36.52,36.52,0,0,0-3,8.12c-10.66,43.39-8.88,40.34-11.93,54.05-.76,3-1,5.83-4.31,7.61a6.38,6.38,0,0,1-2,.25c-2.79,0-3.81-2-4.06-4.82a69.62,69.62,0,0,1,1-12.69c3.56-21.06,9.9-47.45,16.75-72.57-5.84,6.34-12.18,12.69-15.73,15.73a50.29,50.29,0,0,1-20.81,11.17c-8.63.51-19.28-2.54-21.57-11.17a39.18,39.18,0,0,1-1.77-10.65,56.31,56.31,0,0,1,1.52-11.42,95.48,95.48,0,0,1,14.72-34.26l1.77-2c.76,0,1.27-.25,2-.25,2.79,0,4.32,1.26,5.08,4.31,0,3.81-2.29,6.09-4.06,9.13-6.35,11.17-10.41,23.86-10.41,37.05.26,3.56.26,7.36,4.32,9.65,1,0,2,.5,2.79.5,5.33,0,9.13-2.53,12.69-4.56,6.34-4.06,23.85-21.83,35.52-34,3.3-11.16,6.85-21.82,9.9-31.21,2-6.09,3-8.37,6.85-8.88,2.54,0,4.57,0,4.57,4.06-1,4.82-8.12,29.18-8.38,32a141.67,141.67,0,0,1,16.5-16.24,18.79,18.79,0,0,1,13.19-5.07,29.64,29.64,0,0,1,4.57.25c6.34,2,8.37,7.36,8.37,14a48.47,48.47,0,0,1-1.77,11.42l34-2.8C752,501.4,752.24,502.66,752.24,504.7ZM620.79,460.8a4.26,4.26,0,0,1-.5-2.29,7.29,7.29,0,0,1,1-3.55,7,7,0,0,1,3.81-3.3,8.81,8.81,0,0,1,2.28-.25,6.73,6.73,0,0,1,5.58,2.53c0,8.63,0,8.63-7.1,11.17C623.33,464.86,621.81,463.08,620.79,460.8Zm72.07,60.9a39.4,39.4,0,0,0-17,5.32c-1.27,1-6.85,4.07-5.84,8.63a4,4,0,0,0,3.05,1.27c1.52,0,2.53-.76,3.8-1.27C683.22,532.61,688.29,527.79,692.86,521.7Zm15.22-30.2a5.42,5.42,0,0,0-3.8-5.08c-4.06,0-20.56,14-28.68,29.19,5.59-2.79,15.23-5.33,26.65-8.88A36.76,36.76,0,0,0,708.08,491.5Zm129.67,11.67c0,1.53-1.77,3.3-5.07,4.06-12.94,2-23.09,2.54-40.09,7.62-5.33,16.74-17.51,39.07-29.69,51.51-6.85,6.85-13.45,12.18-23.35,13.19a36.61,36.61,0,0,1-5.07.26c-2.29,8.62-5.08,17.76-7.36,26.13-4.06,16.24-8.63,32.74-12.69,49-1,2.79-1.27,6.09-3.3,8.12-1.27,1-2.28,1.77-3.3,1.77a4.84,4.84,0,0,1-3-1.77,9.92,9.92,0,0,1-.76-3.55,32.41,32.41,0,0,1,1.26-7.11c1.78-6.6,18.78-71.56,19.8-74.1a16.87,16.87,0,0,1-4.06-4.56A25.85,25.85,0,0,1,715.44,558c0-5.83,2.54-11.92,6.86-17,4.82-5.07,10.15-8.88,16-13.19,3.05-12.44,6.35-25.13,8.63-38.57-2.28,1.77-2.54,4.82-5.58,6.09-.76,0-1,.25-1.53,0-2.53,0-4.56-1.27-4.56-4.06,2-7.87,7.61-12.95,13.7-17.26,2.79-3,3.55-7.1,7.61-8.37h1c2,0,3.3,1.52,5.58,2.53h7.61c6.09-.25,10.41,2.54,14.21,6.6,5.33,5.33,7.36,11.67,8.63,18.78.51,2.54.51,7.87.76,10.91,9.9-2.28,35.27-6.09,39.84-5.07A4,4,0,0,1,837.75,503.17ZM735.74,542c-4.06,2.28-9.13,8.12-10.4,12.18a13.59,13.59,0,0,0-.25,3.3,17,17,0,0,0,3.3,9.89C730.42,559.51,733.21,552.15,735.74,542Zm46.44-24.11c-15.22,4.57-26.13,9.9-35.78,17-2.79,11.42-6.09,21.57-9.64,35.27a15.48,15.48,0,0,0,5.58-.76,42.67,42.67,0,0,0,13.45-8.88C768.23,547.83,777.87,531.59,782.18,517.89Zm2-17.26c0-8.37-2-17.25-9.13-22.58-1-.76-2-.76-3.81-.76a24.54,24.54,0,0,0-11.16,3c-6.35,27.15-8.12,32.48-10.41,41.1,8.38-4.82,25.38-11.16,34.26-14A58.4,58.4,0,0,0,784.21,500.63ZM823,531.09a49,49,0,0,1,2-13.2,110.31,110.31,0,0,1,22.58-37.81c5.84-5.07,10.66-7.1,16-7.1a9,9,0,0,1,8.37,6.09,10.69,10.69,0,0,1,.76,4.82,18.29,18.29,0,0,1-2.28,8.62,63.26,63.26,0,0,1-28.93,26.39c-2.28,1-4.57,1.78-7.11,2.8a31.72,31.72,0,0,0-2,10.4c0,3.81,1,6.6,3.56,7.87a7.77,7.77,0,0,0,4.31,1c5.08,0,10.91-3,18.27-7.1,18-10.41,29.44-18.53,47.71-30.2,2.28-1.27,4.31-2.54,5.83-3.3h1.27c2.79,0,3.3,2,3.3,4.82a6.69,6.69,0,0,1-3,4.06c-4.32,3-8.38,5.59-13.45,9.14-14,8.37-22.59,14.72-37.31,23.34-4.06,2-7.61,4.06-11.41,5.59a28.13,28.13,0,0,1-11.93,2.53C827.35,549.86,823,541.24,823,531.09Zm40.85-47a2.31,2.31,0,0,0-2.54-2c-3,.25-5.58,2.28-8.63,5.84a112.31,112.31,0,0,0-14.46,22.33C847.65,508.76,862.87,494.54,863.89,484.14Zm112,66v-1.27a9.23,9.23,0,0,1,.51-3.81c5.33-23.6,10.66-47.45,16.24-71,4.31-16.49,12.69-43.65,18.78-58.87.76-2.79,1.77-5.07,3-8.88-7.61-1.27-41.61,4.82-46.94,4.06-2.79,1.52-4.82,2.54-6.85,3.8-4.32-.76-8.38-1.77-12.18-2.28-2.54-1.77-3.56-3.8-2.29-6.6,2-2.53,5.33-3,8.89-3.3,8.62-1,17.5-1.77,54.3-5.32,6.6-.51,8.63-1.53,15-5.08h1c2,0,3.81,1.52,6.1,2.28,14.21-1.26,34.51-3.29,48.72-4.82,2.79.76,5.07,1.53,5.32,4.57,0,1.52-.5,3.05-3.29,4.57-16,1.78-38.32,4.57-55.58,6.09a134.86,134.86,0,0,0-6.09,14.21c-8.12,19.79-17.25,52.27-21.82,72.83l-12.18,53.54c-.51,2-1,4.31-1.78,6.6a6,6,0,0,1-4.82,3.55C977.45,554.43,975.92,552.91,975.92,550.12Zm43.14-23.1a26.41,26.41,0,0,1-.25-4.31c0-4.31,1-8.88,5.07-18.52a80.65,80.65,0,0,1,16.24-23.09c9.14-9.14,14.47-10.15,25.38-10.15.51,0,.51.25,1.27-.77,2-3,4.06-6.09,6.09-8.62,1-1,1.77-1,2.79-1.53h1c1.52,0,3.29.77,4.31,3.56a7.83,7.83,0,0,1,0,2.53,124.75,124.75,0,0,0-8.37,21.83c-2.54,7.61-4.83,15.48-4.06,23.6,0,3.3.25,9.13,2.53,11.16a5.38,5.38,0,0,0,3.55,1c5.59,0,12.69-7.87,17.51-14,2.29-3,7.87-10.15,10.15-10.15h.77a3.26,3.26,0,0,1,3.29,3.55,4,4,0,0,1-.76,2.54c-6.09,8.88-13.7,18.27-21.31,23.35-3.3,2.53-6.09,3.55-11.67,3.55-7.62,0-11.93-5.59-13.2-12.69-1-5.33-1-9.64-1-16.75-4.56,5.08-8.62,10.15-12.68,14.72-3,3.81-6.09,7.11-9.39,10.66-2.79,3-6.09,3.55-9.14,4.06C1021.09,532.1,1020.08,529.82,1019.06,527Zm14.21-9.64a237,237,0,0,0,26.14-35c1.27-1.52,1.52-2.28-1-1.52-6.59,1.52-10.65,5.58-15,10.66-7.1,9.13-14.21,20.81-14.21,29.18C1030.48,519.67,1032.26,518.4,1033.27,517.38Zm1.78,164.44c-1-10.66,1.52-20.05,6.6-29.19,11.67-19.53,28.16-33.24,49.73-40.85a152.32,152.32,0,0,1,39.59-7.87,16.23,16.23,0,0,0,5.07-.76,10.37,10.37,0,0,0,2.54-3.3c14.47-27.4,27.41-55.82,35-86,2.54-8.12,4.06-16.49,3.55-24.87,0-2,0-4.06-1.52-5.83a3.61,3.61,0,0,0-2.54-1,10.85,10.85,0,0,0-4.06,1.27c-4.82,2.54-9.64,5.58-12.94,9.64-8.12,8.63-16,17.51-23.6,26.39-8.12,10.15-15.73,20.56-24.87,29.69a62,62,0,0,1-7.36,6.85,9.71,9.71,0,0,1-5.07,1.53q-3,0-6.09-3.05c-1.78-3.3-2.28-7.36-2.28-11.16a23.54,23.54,0,0,1,.25-4.06c1-5.59,1.78-11.42,3.81-16.75,4.06-11.93,8.37-23.85,12.68-35.27,1-2.8,2-5.08,4.06-6.35,2-1.52,3.56-1.52,5.08-.5a4.57,4.57,0,0,1,1.77,5.58c-1,2.54-2,5.58-3.29,8.37-5.59,14.21-10.92,28.42-14,43.39a15.88,15.88,0,0,0-.76,3.3,4.41,4.41,0,0,0,1.52,3c3-.26,4.31-2.79,6.09-4.82,8.38-10.41,16.75-21.32,25.38-31.47,7.1-8.12,14.21-15.48,21.31-23.35A54.83,54.83,0,0,1,1168.52,473a16.13,16.13,0,0,1,6.09-1.27c5.84,0,9.65,3.55,11.68,10.4a28.56,28.56,0,0,1,1.27,9.14,45.37,45.37,0,0,1-.77,7.86c-2.28,16.5-7.35,32.48-13.44,47.71a448.53,448.53,0,0,1-23.35,53,53.5,53.5,0,0,0-2.28,5.08c14.46,3.8,28.42,7.86,36.79,20,0,3.56-1.78,5.08-4.82,5.33-6.6-1.77-10.66-8.37-17.51-10.91-6.34-2.28-12.94-3.55-19.28-5.07-3.3,3-5.08,6.59-6.86,9.64-11.41,17.51-22.33,35.53-36,51.26A98.71,98.71,0,0,1,1076.16,696a44.77,44.77,0,0,1-19.79,5.58C1046.47,702.12,1036.32,696.53,1035.05,681.82Zm38.06,4.56a92.35,92.35,0,0,0,20.3-18.27c13.71-16.24,24.87-34.51,36.54-53.28a40.1,40.1,0,0,1-4.31-.51c-16.49,1.77-32.73,5.58-46.94,14.21-19,11.67-32.48,27.15-34.51,50.49,2,7.11,2,7.11,6.09,11.42a20.89,20.89,0,0,0,6.59,1C1062.71,691.46,1068,689.43,1073.11,686.38ZM1190.6,576.25c-1.27-1.52-2-2.79-2-4.56a12.53,12.53,0,0,1,.76-4.06c2-6.35,3.55-12.69,5.58-19.29,9.65-31,24.11-82.72,34.51-113.68,5.59-15.23,11.68-29.94,18.28-44.92,1.52-3,2.79-6.08,5.07-8.12,2.54-1.26,4.06-1.77,6.09-.76,2.79,2,2.54,4.82,2,7.11-.25,1-.25,1.77-.51,2a46.9,46.9,0,0,0-8.62,15,647.51,647.51,0,0,0-26.65,77.39c-12.43,42.13-19,63.44-25.37,84.76-1,3.3-1.78,6.6-4.06,9.13a12.48,12.48,0,0,1-3,.51A5.84,5.84,0,0,1,1190.6,576.25Zm55.07-40.09c-4.32-2-6.1-6.09-6.35-11.16-.76-5.59.51-11.17,2.54-16.5a57.85,57.85,0,0,0,2.79-7.36v-2c0-1.52-.25-2.53-.25-3.55,0-10.4,7.1-15.22,19.79-15.22,8.88,0,13.7,4.05,13.7,11.92a50.66,50.66,0,0,1-.76,6.09l.25.26a37.28,37.28,0,0,0,8.12.76c3,0,6.6-.26,9.65-.26a30.41,30.41,0,0,1,6.59-.5,15.13,15.13,0,0,1,5.08.5c2.79,0,4.06,2.29,3.55,5.08,0,0-.51.25-.51.51a1.32,1.32,0,0,1-.5,1c-2.54,2.79-6.09,2.79-9.9,2.79s-8.12.26-12.18.26c-4.82,0-9.9,0-12.43.5-.77.51-4.82,8.12-6.09,10.66-2.8,5.08-6.09,10.15-11.17,14-2.54,2-5.07,3.3-7.87,3.3A8,8,0,0,1,1245.67,536.16Zm4.82-9.14c5.07-1.52,10.4-9.13,12.68-17.5l-.25-.26c-2.28-1.77-6.09-2.53-9.9-2-3.3,6.09-5.07,10.66-5.07,14.47a7.23,7.23,0,0,0,2,5.32Zm17.25-30.44c0-2-2-3.56-4.06-4.07h-.51c-2.28,0-5.33,2.54-5.33,5.08v.51a32.83,32.83,0,0,1,8.12,1.52C1267,500.13,1267.74,498.35,1267.74,496.58Zm27.41,40.6c0-2.54.76-5.59,1.26-9.65,3-16,12.18-45.17,13.71-46.43a5.94,5.94,0,0,1,4.06-1.78,4.34,4.34,0,0,1,4.31,3c.76,5.08-1.27,8.89-3.3,14.22-2.79,7.86-5.07,15-5.83,22.07l6.34-10.15c7.87-10.4,19.28-24.61,29.44-32.48,6.59-5.33,15.73-10.15,22.83-10.15a10.61,10.61,0,0,1,7.36,2.79c3.3,3,5.08,6.35,5.08,10.41a10.73,10.73,0,0,1-.76,4.82c-2,2.28-4.06,3.3-6.35,2-3.3-2-2.28-6.6-4.31-8.88a8.85,8.85,0,0,0-2.79-.77c-4.06,0-9.9,3.81-15,7.11-15.47,11.93-29.68,32-40.09,48.47-3.55,5.83-4.57,11.16-10.15,11.16C1296.41,542.76,1295.15,540.73,1295.15,537.18Z"/></svg>