<svg id="The_Agency" data-name="The Agency" xmlns="http://www.w3.org/2000/svg" viewBox="0 0 1920 1080"><defs><style>.cls-1{fill:none;stroke:#fff;stroke-miterlimit:10;stroke-width:2.33px;}.cls-2{fill:#fff;}</style></defs><path class="cls-1" d="M473.54,597H446V576.84h80.31V597H498.9V666.5H473.54Z"/><path class="cls-1" d="M621.09,576.84V666.5H595.73v-35H561.15v35H535.79V576.84h25.36v33.69h34.58V576.84Z"/><path class="cls-1" d="M699.1,649.08H661.18l-7,17.42H628.27l39.57-89.66h25l39.71,89.66H706.14Zm-7.43-18.7-11.53-28.69-11.53,28.69Z"/><path class="cls-1" d="M754.3,597H726.76V576.84h80.31V597H779.66V666.5H754.3Z"/><path class="cls-1" d="M925.8,646.91V666.5h-72V576.84h70.32v19.6H878.92v15.11h39.84v19H878.92v16.4Z"/><path class="cls-1" d="M1000,649.08H962.05l-7,17.42H929.13l39.58-89.66h25l39.7,89.66H1007Zm-7.42-18.7L981,601.69l-11.53,28.69Z"/><path class="cls-1" d="M1079.76,642.68h-13.83V666.5h-25.36V576.84h41q12.18,0,21.14,4A32.61,32.61,0,0,1,1116.84,627a30.72,30.72,0,0,1-13,11.33l19.34,28.18H1096Zm12-42.4q-4-3.45-11.78-3.46h-14.09v26.26H1080q7.8,0,11.78-3.39t4-9.67Q1095.77,603.74,1091.8,600.28Z"/><path class="cls-1" d="M1220.65,576.84V666.5h-20.88l-39.57-47.77V666.5h-24.85V576.84h20.88l39.57,47.78V576.84Z"/><path class="cls-1" d="M1249,665.61q-10.24-2.7-16.65-7.18l8.32-18.7a53.86,53.86,0,0,0,14,6.41,53.29,53.29,0,0,0,15.63,2.43q14.61,0,14.6-7.3,0-3.84-4.16-5.7a76.94,76.94,0,0,0-13.38-3.91,128,128,0,0,1-16.91-4.67,28.46,28.46,0,0,1-11.66-8q-4.86-5.51-4.87-14.86a25.72,25.72,0,0,1,4.49-14.79q4.49-6.6,13.38-10.44t21.84-3.84a76.68,76.68,0,0,1,17.42,2,53.21,53.21,0,0,1,15.11,5.82l-7.81,18.83q-12.81-6.91-24.85-6.92-7.56,0-11,2.25a6.7,6.7,0,0,0-3.46,5.82c0,2.4,1.36,4.19,4.1,5.38a73.51,73.51,0,0,0,13.19,3.72,124.07,124.07,0,0,1,17,4.67,29.43,29.43,0,0,1,11.66,7.94q4.92,5.44,4.93,14.8a25.28,25.28,0,0,1-4.48,14.6q-4.48,6.52-13.45,10.44t-21.78,3.9A83,83,0,0,1,1249,665.61Z"/><path class="cls-1" d="M1358.72,576.84h25.36V666.5h-25.36Z"/><path class="cls-1" d="M1421.23,597h-27.54V576.84H1474V597h-27.41V666.5h-25.36Z"/><path class="cls-2" d="M569.64,553.82a471.7,471.7,0,0,1,14.55-66.61c6.38-21.44,12.51-43.39,19.14-64.82a33.58,33.58,0,0,1,1.28-5.62c-21.44,4.09-30.63,5.62-37,5.62a27.69,27.69,0,0,1-8.16-1,3.15,3.15,0,0,1-1-3.58c1-2.8,3.31-3.83,6.37-4.08,10-1.53,16.08-3.06,26.29-4.59l16.84-3.07c6.64-16.58,11-33.94,18.38-48.49,2-1.78,3.57-1.78,4.85-1.53,1,0,1.78,1,2.29,1.53a4.62,4.62,0,0,1,.77,3.07c0,1.53-.77,3.32-1.28,5.1-3.82,10.21-7.65,20.42-11.22,30.63a8.38,8.38,0,0,0-.77,6.38,25.29,25.29,0,0,0,4.34.25c7.65,0,15.06-2.55,22.46-3.57,8.93-1.53,18.12-2.81,27-4.08a4.6,4.6,0,0,1,4.08,3.31,3.44,3.44,0,0,1-.51,2.3c-2,3.57-5.36,3.83-8.68,4.59-16.84,2.56-33.43,5.36-50,8.42a11.27,11.27,0,0,0-3.57.77c-4.34,8.42-6.12,18.38-9.19,27.56-3.06,9.45-5.36,18.89-8.16,28.59-2.55,9.69-5.62,19.39-8.42,29.09-2.3,9.7-4.34,19.39-6.9,29.09-2.29,9.44-3.06,19.4-5.35,27.82-2.3,1.79-4.09,2.3-5.87,1.79C570.66,557.64,569.9,556.11,569.64,553.82Z"/><path class="cls-2" d="M617.11,514.26a6.09,6.09,0,0,1-1.53-4.34,20.68,20.68,0,0,1,.51-4.34c3.57-15.31,9.7-36.75,13.78-51.8,6.38-23.48,15.57-46.2,24.76-68.65a40.7,40.7,0,0,1,3.31-6.64,6.06,6.06,0,0,1,5.11-3.32,7.92,7.92,0,0,1,3.57,1.79,4,4,0,0,1,1.28,2.3c-4.34,11.23-9.19,22.46-13.53,33.94a374.84,374.84,0,0,0-17.1,51,88,88,0,0,0-2,10.72c2-2.55,13.53-13.27,17.1-15.31a9.81,9.81,0,0,1,6.12-2,19.68,19.68,0,0,1,3.58.52c3.06,2.55,4.08,5.1,4.08,8.16a32.45,32.45,0,0,1-.51,4.6,66.39,66.39,0,0,0-1.79,14.29,35.26,35.26,0,0,0,.26,5.1c.76,4.08,1.78,7.66,6.89,9.44,4.34.77,9.95-4.33,14-8.93,3.57-4.34,7.14-8.17,10.71-12.5,1.79-2,5.11-6.13,6.89-5.36,2.3.25,3.32,1.27,4.09,4.34,0,.76,0,1.78-.77,2.29-6.12,8.68-12.25,16.34-19.65,23.23-4.08,3.82-8.93,6.89-14.55,6.89A16,16,0,0,1,659,503c-4.08-5.36-5.35-12.25-5.35-18.88a72.29,72.29,0,0,1,1-13c-13.53,9.95-22.72,30.62-30.63,43.13a9.44,9.44,0,0,1-4.08,1A3.83,3.83,0,0,1,617.11,514.26Z"/><path class="cls-2" d="M689.84,504.05a49.25,49.25,0,0,1,2-13.27,110.78,110.78,0,0,1,22.71-38c5.87-5.11,10.72-7.15,16.08-7.15a9.09,9.09,0,0,1,8.42,6.13,10.79,10.79,0,0,1,.76,4.84,18.39,18.39,0,0,1-2.29,8.68,63.61,63.61,0,0,1-29.1,26.54c-2.29,1-4.59,1.79-7.14,2.81a31.56,31.56,0,0,0-2,10.46c0,3.83,1,6.64,3.57,7.91a7.79,7.79,0,0,0,4.34,1c5.1,0,11-3.06,18.37-7.14,18.12-10.46,29.61-18.63,48-30.37,2.3-1.28,4.34-2.55,5.87-3.32h1.28c2.8,0,3.31,2,3.31,4.85A6.75,6.75,0,0,1,781,482.1c-4.34,3.07-8.42,5.62-13.52,9.19-14,8.42-22.72,14.8-37.52,23.48-4.08,2-7.66,4.08-11.48,5.61a28.14,28.14,0,0,1-12,2.56C694.18,522.94,689.84,514.26,689.84,504.05Zm41.09-47.21a2.31,2.31,0,0,0-2.55-2c-3.06.25-5.61,2.29-8.68,5.87a113.08,113.08,0,0,0-14.54,22.45C714.6,481.59,729.91,467.3,730.93,456.84Z"/><path class="cls-2" d="M841.94,500a26.77,26.77,0,0,1-.25-4.34c0-4.34,1-8.93,5.1-18.63a80.85,80.85,0,0,1,16.34-23.22c9.18-9.19,14.54-10.21,25.52-10.21.51,0,.51.25,1.27-.77,2-3.06,4.09-6.12,6.13-8.67,1-1,1.78-1,2.81-1.54h1c1.53,0,3.31.77,4.33,3.58a7.64,7.64,0,0,1,0,2.55,126.32,126.32,0,0,0-8.42,21.95c-2.55,7.65-4.85,15.56-4.08,23.73,0,3.32.25,9.19,2.55,11.23a5.37,5.37,0,0,0,3.57,1c5.62,0,12.76-7.91,17.61-14,2.3-3.06,7.91-10.2,10.21-10.2h.77a3.28,3.28,0,0,1,3.31,3.57,4,4,0,0,1-.76,2.55c-6.13,8.93-13.78,18.38-21.44,23.48-3.32,2.55-6.12,3.57-11.74,3.57-7.65,0-12-5.61-13.27-12.76-1-5.36-1-9.7-1-16.84-4.59,5.1-8.68,10.21-12.76,14.8-3.06,3.83-6.12,7.15-9.44,10.72-2.81,3.06-6.13,3.57-9.19,4.08C844,505.07,843,502.78,841.94,500Zm14.3-9.7a238.43,238.43,0,0,0,26.28-35.22c1.28-1.53,1.53-2.29-1-1.53-6.63,1.53-10.72,5.62-15.06,10.72-7.14,9.19-14.29,20.93-14.29,29.35C853.43,492.57,855.22,491.29,856.24,490.27Z"/><path class="cls-2" d="M886.86,573a28.94,28.94,0,0,1,3.06-16.08c4.85-8.93,10.21-17.36,17.87-24.76a209.5,209.5,0,0,1,50.27-37.77l9.19-4.84a155.28,155.28,0,0,0,10.46-25.27,23.71,23.71,0,0,0,1.79-7.4c0-1.28-.26-2-1.28-2s-3.06,1.27-6.63,4.08c-.51.77-25.52,24.5-33.69,31.9a17.68,17.68,0,0,1-10.72,4.6c-3.83,0-7.66-1.79-8.17-5.87-.76-4.34.51-14,8.17-25.53a62.65,62.65,0,0,1,19.91-20.16c5.1-3.06,10.2-5.1,15.31-5.1a18.58,18.58,0,0,1,12.76,5.1h8.67c4.85,1.79,6.13,4.85,6.9,8.94-.26,10.2-6.38,21.69-10,30.88,3.58-1.28,27.56-9.7,27.31-9.45a24.21,24.21,0,0,1,5.87-1.27c.51,0,2-.51,3.06-.51a3,3,0,0,1,3.06,2c0,.51.26,1,.26,1.53,0,2.3-2.3,4.08-4.08,4.59-4.09,1.79-8.43,3.07-12.51,4.85-9.7,3.06-19.14,6.38-28.33,11.23C970.05,505.84,965,515,959.85,524c-10.21,16.84-22,32.92-36.24,47-4.09,3.57-8.42,7.4-13.78,10.2a26,26,0,0,1-8.68,2.55C893.49,584.7,887.88,580.36,886.86,573Zm18.12-.51c6.38-3.07,11.48-8.17,16.33-13.27,13-13.79,23.73-29.61,33.43-46.2,1-1.78,2.3-5.1,4.09-8.16a84.63,84.63,0,0,0-8.94,5.1A295.58,295.58,0,0,0,919,534.42a85,85,0,0,0-14,16.33c-4.09,6.13-8.17,12.51-8.42,20.17a4.47,4.47,0,0,0,2.55,3.06c.51,0,1,.25,1.53.25C901.92,574.23,903.19,573.21,905,572.45ZM940.45,476c10.46-9.7,14.55-14,24.76-23.48.25-.51.25-1.53.76-2a4.51,4.51,0,0,0-3.83-2,8.29,8.29,0,0,0-3.31,1c-7.66,3.06-12.76,6.12-18.38,12.76a76.54,76.54,0,0,0-11.74,18.12,9.65,9.65,0,0,0-1.27,4.08C927.44,488.23,934.58,482.36,940.45,476Z"/><path class="cls-2" d="M1003.74,504.05a49.62,49.62,0,0,1,2-13.27,111,111,0,0,1,22.72-38c5.87-5.11,10.72-7.15,16.08-7.15a9.09,9.09,0,0,1,8.42,6.13,10.79,10.79,0,0,1,.76,4.84,18.39,18.39,0,0,1-2.29,8.68,63.61,63.61,0,0,1-29.1,26.54c-2.29,1-4.59,1.79-7.14,2.81a31.59,31.59,0,0,0-2.05,10.46c0,3.83,1,6.64,3.58,7.91a7.77,7.77,0,0,0,4.34,1c5.1,0,11-3.06,18.37-7.14,18.12-10.46,29.6-18.63,48-30.37,2.3-1.28,4.34-2.55,5.87-3.32h1.27c2.81,0,3.32,2,3.32,4.85a6.75,6.75,0,0,1-3.06,4.08c-4.34,3.07-8.42,5.62-13.53,9.19-14,8.42-22.71,14.8-37.51,23.48-4.08,2-7.66,4.08-11.48,5.61a28.17,28.17,0,0,1-12,2.56C1008.08,522.94,1003.74,514.26,1003.74,504.05Zm41.09-47.21a2.31,2.31,0,0,0-2.55-2c-3.06.25-5.62,2.29-8.68,5.87a113.57,113.57,0,0,0-14.55,22.45C1028.5,481.59,1043.81,467.3,1044.83,456.84Z"/><path class="cls-2" d="M1087.44,516.05a17.51,17.51,0,0,1-.25-4.34c0-11,3.83-39.3,9.19-56.66a61.54,61.54,0,0,1,6.12-13.52c2.3-2.81,4.85-5.11,8.42-4.09,2.55,1,3.58,2.3,3.07,5.87-10.21,11.74-13.28,28.08-15.83,49.26v1.78a2.82,2.82,0,0,0,1,2.56c2-3.32,4.09-6.64,6.38-9.7s5.11-6.64,7.91-9.7a47.31,47.31,0,0,1,7.15-7.14c2.3-1.54,4.34-3.07,7.15-3.07a13.21,13.21,0,0,1,3.06.77c2,1,3.06,2.3,3.57,5.1a30.32,30.32,0,0,1,.51,7.15c0,8.93-.76,18.63,2.3,21.69a6.78,6.78,0,0,0,4.08,1.53c4.85,0,9.44-5.87,15.06-12.25l8.42-11.23c2-2.8,5.36-7.14,7.91-7.65.26,0,.51-.26,1-.26a4,4,0,0,1,3.58,3.32v.76a8,8,0,0,1-2.3,5.36c-4.85,6.89-10,13.79-15.06,20.16a38.4,38.4,0,0,1-11.23,9.19,15.74,15.74,0,0,1-8.67,2.81c-6.13,0-11.23-4.08-14-11a46.42,46.42,0,0,1-2-14v-2.3c0-1.27,0-2.8-.77-3.32-1.53.26-3.57,2.3-5.61,4.6-5.62,6.89-9.7,14-13.78,21.44-2.3,4.59-5.11,9.95-8.68,11.22C1091.27,520.38,1089.23,519.11,1087.44,516.05Z"/><path class="cls-2" d="M1166,496.4a52.28,52.28,0,0,1,3.83-22.46A70.91,70.91,0,0,1,1189,448.42c6.38-5.62,11.74-9.7,20.42-9.7,10.46,0,16.33,10.72,17.86,20.16,0,3.32-2,5.1-5.1,5.87-1.28,0-2.3-.77-3.57-2-2-3.06-.51-7.15-3.07-10.21a12.52,12.52,0,0,0-3.06-3.83,10.8,10.8,0,0,0-4.59-1c-1.53,0-3.06.77-4.6,1.28a38.13,38.13,0,0,0-9.69,6.63c-9.19,9.19-15.57,19.65-17.87,31.65a18.13,18.13,0,0,0-.76,5.36c0,7.14,3.31,13,11.23,13.52a41.44,41.44,0,0,0,14-3.31,134.47,134.47,0,0,0,21.69-11.23c5.11-3.07,21.19-14.29,25.27-17.1,2-1.28,4.34-2.55,5.61-2.55,2.81,0,3.83,1,4.09,4.08,0,1.28-1,2.55-2.3,3.57-12,9.19-47,34.2-67.12,34.2C1177,513.75,1167.07,507.62,1166,496.4Z"/><path class="cls-2" d="M1200,635.23a28.71,28.71,0,0,1-1.53-9.19,56.05,56.05,0,0,1,.76-6.89c4.34-21.69,15.06-39.56,32.92-52.32a121.79,121.79,0,0,1,56.66-22c1,0,2-.25,2.55-.25,11-14,32.15-66.1,35.47-87.54a129.09,129.09,0,0,0-17.1,13.79c-10.2,9.44-20.67,18.88-31.64,27.56a83.3,83.3,0,0,1-14.55,9.18,19.86,19.86,0,0,1-11,1.54c-5.36-.26-8.42-3.58-9.19-9.19l-.25-4.34a22.46,22.46,0,0,1,1-7.4,113.47,113.47,0,0,1,15.56-34.45c1.79-1.79,3.07-3.83,5.87-4.09,2.81.26,4.09,1.79,4.85,4.85-.51,3.58-3.57,6.38-5.1,9.44a94.72,94.72,0,0,0-12,28.84,13.65,13.65,0,0,0-.76,3.07c0,1.53.76,2.8,2.55,4.08,4.34-.51,8.42-3.06,12.25-5.62,8.68-6.63,16.84-13.78,25-20.92l20.42-18.38c4.84-4.08,9.69-7.65,15.82-9.18a8,8,0,0,1,7.14,3.57,12.62,12.62,0,0,1,2,6.63,6.51,6.51,0,0,1-.51,3.07c-2.3,12.76-6.38,24.5-11.23,36.24-5.11,12.24-10.47,24-15.83,36.23-1.53,3.58-3.06,6.89-4.59,10,1.53,2,3.06,1.78,4.85,2,9.44.76,19.14,1,28.58,1.78,2.81.26,5.11,1.28,6.13,4.09V550c0,3.57-2.3,4.59-4.85,5.1-1.53,0-3.32-.25-5.11-.25-7.65-.77-15.31-1-22.71-1-4.08,0-8.17,0-12.25.25-3.83,3.83-5.1,7.91-7.15,12-10.2,19.14-21.43,37.77-34.7,55.12a126.46,126.46,0,0,1-13.53,15.31,56.33,56.33,0,0,1-16.33,10,25.09,25.09,0,0,1-12.25,1.53C1208.15,647.73,1202.54,642.88,1200,635.23Zm44.91-12.76a291.47,291.47,0,0,0,26.54-38.28c5.11-8.68,10.21-17.36,14.81-28.33-4.09.25-6.64.25-9.19,1a126.14,126.14,0,0,0-26.8,10.21c-14.29,7.14-25.52,17.35-33.43,31.64-4.59,8.42-7.66,17.36-7.66,26.54a37.3,37.3,0,0,0,1,8.94,10.9,10.9,0,0,0,8.17,4.59C1230.61,635.74,1237,632.16,1244.9,622.47Z"/></svg>