<svg id="PULSE" xmlns="http://www.w3.org/2000/svg" viewBox="0 0 1920 1080"><defs><style>.cls-1{fill:none;stroke:#fff;stroke-miterlimit:10;stroke-width:2px;}</style></defs><path class="cls-1" d="M764.78,476.55a41.16,41.16,0,0,1,18.16,15.13q6.38,9.82,6.38,23.11t-6.38,23a41.39,41.39,0,0,1-18.16,15.05q-11.76,5.29-27.73,5.29h-20.5v30.76H683.27V471.26h53.78Q753,471.26,764.78,476.55ZM750.5,527.48q5.21-4.46,5.21-12.69T750.5,502q-5.22-4.53-15.47-4.53H716.55v34.45H735Q745.29,531.93,750.5,527.48Z"/><path class="cls-1" d="M817.81,577q-14.53-14.29-14.54-40.51V471.26h33.28v64.2q0,28.24,22.36,28.24,22.19,0,22.18-28.24v-64.2h32.78v65.21q0,26.22-14.54,40.51t-40.76,14.28Q832.35,591.26,817.81,577Z"/><path class="cls-1" d="M936.39,471.26h33.28v91.26h56.13v26.39H936.39Z"/><path class="cls-1" d="M1052.19,587.73q-13.45-3.53-21.85-9.41l10.92-24.54a70.67,70.67,0,0,0,18.32,8.4,69.78,69.78,0,0,0,20.51,3.2q19.15,0,19.16-9.58,0-5-5.46-7.48t-17.57-5.13a167.76,167.76,0,0,1-22.18-6.13,37.41,37.41,0,0,1-15.3-10.51q-6.39-7.21-6.38-19.49a33.81,33.81,0,0,1,5.88-19.42q5.88-8.65,17.56-13.69t28.66-5.05a101,101,0,0,1,22.86,2.61,69.86,69.86,0,0,1,19.83,7.65l-10.25,24.7q-16.82-9.08-32.61-9.07-9.91,0-14.45,2.94t-4.54,7.65c0,3.13,1.79,5.49,5.38,7s9.35,3.2,17.31,4.88a163.76,163.76,0,0,1,22.27,6.13,38.5,38.5,0,0,1,15.29,10.42Q1132,541,1132,553.28a33.11,33.11,0,0,1-5.88,19.16q-5.88,8.56-17.65,13.69t-28.57,5.13A108.89,108.89,0,0,1,1052.19,587.73Z"/><path class="cls-1" d="M1241.78,563.19v25.72h-94.46V471.26h92.27V497h-59.33V516.8h52.27v24.88h-52.27v21.51Z"/></svg>